<?xml version="1.0" encoding="UTF-8" standalone="no"?>
<svg
   xmlns:dc="http://purl.org/dc/elements/1.1/"
   xmlns:cc="http://creativecommons.org/ns#"
   xmlns:rdf="http://www.w3.org/1999/02/22-rdf-syntax-ns#"
   xmlns:svg="http://www.w3.org/2000/svg"
   xmlns="http://www.w3.org/2000/svg"
   xmlns:sodipodi="http://sodipodi.sourceforge.net/DTD/sodipodi-0.dtd"
   xmlns:inkscape="http://www.inkscape.org/namespaces/inkscape"
   version="1.1"
   width="404"
   height="452"
   id="svg310"
   sodipodi:docname="Activity Diagram Info Pesantreni!ActivityDiagram Info Pesantren_14.svg"
   inkscape:version="0.92.4 (0.92.4+201912240539+70224e8)">
  <metadata
     id="metadata314">
    <rdf:RDF>
      <cc:Work
         rdf:about="">
        <dc:format>image/svg+xml</dc:format>
        <dc:type
           rdf:resource="http://purl.org/dc/dcmitype/StillImage" />
      </cc:Work>
    </rdf:RDF>
  </metadata>
  <sodipodi:namedview
     pagecolor="#ffffff"
     bordercolor="#666666"
     borderopacity="1"
     objecttolerance="10"
     gridtolerance="10"
     guidetolerance="10"
     inkscape:pageopacity="0"
     inkscape:pageshadow="2"
     inkscape:window-width="1366"
     inkscape:window-height="720"
     id="namedview312"
     showgrid="false"
     inkscape:zoom="1.0442478"
     inkscape:cx="85.983421"
     inkscape:cy="198.25472"
     inkscape:window-x="0"
     inkscape:window-y="24"
     inkscape:window-maximized="1"
     inkscape:current-layer="svg310" />
  <defs
     id="defs2" />
  <g
     id="g122"
     transform="translate(-6,-302)"
     inkscape:export-xdpi="500"
     inkscape:export-ydpi="500">
    <rect
       style="fill:#ffffff;stroke:none"
       id="rect120"
       height="18"
       width="193"
       y="312"
       x="207" />
  </g>
  <g
     id="g126"
     transform="translate(-6,-302)"
     inkscape:export-xdpi="500"
     inkscape:export-ydpi="500">
    <path
       style="fill:none;stroke:#000000;stroke-width:2;stroke-miterlimit:10"
       inkscape:connector-curvature="0"
       id="path124"
       stroke-miterlimit="10"
       d="m 207,312 h 193 v 18 H 207 Z" />
  </g>
  <g
     id="g130"
     transform="translate(-6,-302)"
     inkscape:export-xdpi="500"
     inkscape:export-ydpi="500">
    <path
       style="fill:none;stroke:#000000;stroke-width:2;stroke-miterlimit:10"
       inkscape:connector-curvature="0"
       id="path128"
       stroke-miterlimit="10"
       d="M 207,744 V 312 h 193 v 432" />
  </g>
  <g
     id="g138"
     transform="translate(-6,-302)"
     inkscape:export-xdpi="500"
     inkscape:export-ydpi="500">
    <g
       id="g136">
      <path
         style="fill:none;stroke:none"
         inkscape:connector-curvature="0"
         d=""
         id="path132" />
      <text
         style="font-style:normal;font-weight:normal;font-size:10px;font-family:Arial;text-decoration:none;text-decoration-line:none;fill:#000000;stroke:none"
         id="text134"
         y="326"
         x="288.21924"
         text-decoration="none"
         font-weight="normal"
         font-style="normal"
         font-size="10px">Sistem</text>
    </g>
  </g>
  <g
     id="g210"
     transform="translate(-6,-302)"
     inkscape:export-xdpi="500"
     inkscape:export-ydpi="500">
    <path
       style="opacity:0.2;fill:#c0c0c0;stroke:none"
       inkscape:connector-curvature="0"
       id="path208"
       d="m 243,543 h 134.01953 q 10,0 10,10 v 19 q 0,10 -10,10 H 243 q -10,0 -10,-10 v -19 q 0,-10 10,-10 z" />
  </g>
  <g
     id="g214"
     transform="translate(-6,-302)"
     inkscape:export-xdpi="500"
     inkscape:export-ydpi="500">
    <path
       style="fill:#ffffff;stroke:none"
       inkscape:connector-curvature="0"
       id="path212"
       d="m 236,536 h 134.01953 q 10,0 10,10 v 19 q 0,10 -10,10 H 236 q -10,0 -10,-10 v -19 q 0,-10 10,-10 z" />
  </g>
  <g
     id="g218"
     transform="translate(-6,-302)"
     inkscape:export-xdpi="500"
     inkscape:export-ydpi="500">
    <path
       style="fill:none;stroke:#000000;stroke-miterlimit:10"
       inkscape:connector-curvature="0"
       id="path216"
       stroke-miterlimit="10"
       d="m 236,536 h 134.01953 q 10,0 10,10 v 19 q 0,10 -10,10 H 236 q -10,0 -10,-10 v -19 q 0,-10 10,-10 z" />
  </g>
  <g
     id="g226"
     transform="translate(-6,-302)"
     inkscape:export-xdpi="500"
     inkscape:export-ydpi="500">
    <g
       id="g224">
      <path
         style="fill:none;stroke:none"
         inkscape:connector-curvature="0"
         d=""
         id="path220" />
      <text
         style="font-style:normal;font-weight:bold;font-size:10px;font-family:Arial;text-decoration:none;text-decoration-line:none;fill:#000000;stroke:none"
         id="text222"
         y="552.5"
         x="234.64062"
         text-decoration="none"
         font-weight="bold"
         font-style="normal"
         font-size="10px">Menampilkan Sub Menu Santri</text>
    </g>
  </g>
  <g
     id="g286"
     transform="translate(-6,-302)"
     inkscape:export-xdpi="500"
     inkscape:export-ydpi="500">
    <path
       style="fill:none;stroke:#000000;stroke-miterlimit:10"
       inkscape:connector-curvature="0"
       id="path284"
       stroke-miterlimit="10"
       d="m 171,555 h 54" />
  </g>
  <g
     id="g290"
     transform="translate(-6,-302)"
     inkscape:export-xdpi="500"
     inkscape:export-ydpi="500">
    <path
       style="fill:none;stroke:#000000;stroke-miterlimit:10"
       inkscape:connector-curvature="0"
       id="path288"
       stroke-miterlimit="10"
       d="M 214.83733,559.20952 225,555 214.83733,550.79048" />
  </g>
  <g
     id="g294"
     transform="translate(-6,-302)"
     inkscape:export-xdpi="500"
     inkscape:export-ydpi="500">
    <path
       style="fill:none;stroke:#000000;stroke-miterlimit:10"
       inkscape:connector-curvature="0"
       id="path292"
       stroke-miterlimit="10"
       d="m 303,576 1,64 -135,2" />
  </g>
  <g
     id="g1351"
     inkscape:export-xdpi="500"
     inkscape:export-ydpi="500">
    <g
       transform="translate(-6,-302)"
       id="g102">
      <rect
         x="16"
         y="312"
         width="179"
         height="18"
         id="rect100"
         style="fill:#ffffff;stroke:none" />
    </g>
    <g
       transform="translate(-6,-302)"
       id="g106">
      <path
         d="m 16,312 h 179 v 18 H 16 Z"
         stroke-miterlimit="10"
         id="path104"
         inkscape:connector-curvature="0"
         style="fill:none;stroke:#000000;stroke-width:2;stroke-miterlimit:10" />
    </g>
    <g
       transform="translate(-6,-302)"
       id="g110">
      <path
         d="M 16,744 V 312 h 179 v 432"
         stroke-miterlimit="10"
         id="path108"
         inkscape:connector-curvature="0"
         style="fill:none;stroke:#000000;stroke-width:2;stroke-miterlimit:10" />
    </g>
    <g
       transform="translate(-6,-302)"
       id="g118">
      <g
         id="g116">
        <path
           id="path112"
           d=""
           inkscape:connector-curvature="0"
           style="fill:none;stroke:none" />
        <text
           font-size="10px"
           font-style="normal"
           font-weight="normal"
           text-decoration="none"
           x="64.833496"
           y="326"
           id="text114"
           style="font-style:normal;font-weight:normal;font-size:10px;font-family:Arial;text-decoration:none;text-decoration-line:none;fill:#000000;stroke:none">Admin. Orang Tua</text>
      </g>
    </g>
    <g
       transform="translate(-6,-302)"
       id="g142">
      <path
         d="m 103,360.5 c 0,-5.24671 4.25329,-9.5 9.5,-9.5 5.24671,0 9.5,4.25329 9.5,9.5 0,5.24671 -4.25329,9.5 -9.5,9.5 -5.24671,0 -9.5,-4.25329 -9.5,-9.5 z"
         id="path140"
         inkscape:connector-curvature="0"
         style="opacity:0.2;fill:#c0c0c0;stroke:none" />
    </g>
    <g
       transform="translate(-6,-302)"
       id="g146">
      <path
         d="m 96,353.5 c 0,-5.24671 4.25329,-9.5 9.5,-9.5 5.24671,0 9.5,4.25329 9.5,9.5 0,5.24671 -4.25329,9.5 -9.5,9.5 -5.24671,0 -9.5,-4.25329 -9.5,-9.5 z"
         id="path144"
         inkscape:connector-curvature="0"
         style="fill:#000000;stroke:none" />
    </g>
    <g
       transform="translate(-6,-302)"
       id="g150">
      <path
         d="m 80,399 h 64.0293 q 10,0 10,10 v 19 q 0,10 -10,10 H 80 q -10,0 -10,-10 v -19 q 0,-10 10,-10 z"
         id="path148"
         inkscape:connector-curvature="0"
         style="opacity:0.2;fill:#c0c0c0;stroke:none" />
    </g>
    <g
       transform="translate(-6,-302)"
       id="g154">
      <path
         d="m 73,392 h 64.0293 q 10,0 10,10 v 19 q 0,10 -10,10 H 73 q -10,0 -10,-10 v -19 q 0,-10 10,-10 z"
         id="path152"
         inkscape:connector-curvature="0"
         style="fill:#ffffff;stroke:none" />
    </g>
    <g
       transform="translate(-6,-302)"
       id="g158">
      <path
         d="m 73,392 h 64.0293 q 10,0 10,10 v 19 q 0,10 -10,10 H 73 q -10,0 -10,-10 v -19 q 0,-10 10,-10 z"
         stroke-miterlimit="10"
         id="path156"
         inkscape:connector-curvature="0"
         style="fill:none;stroke:#000000;stroke-miterlimit:10" />
    </g>
    <g
       transform="translate(-6,-302)"
       id="g166">
      <g
         id="g164">
        <path
           id="path160"
           d=""
           inkscape:connector-curvature="0"
           style="fill:none;stroke:none" />
        <text
           font-size="10px"
           font-style="normal"
           font-weight="bold"
           text-decoration="none"
           x="68.88916"
           y="408.5"
           id="text162"
           style="font-style:normal;font-weight:bold;font-size:10px;font-family:Arial;text-decoration:none;text-decoration-line:none;fill:#000000;stroke:none">Halaman Utama</text>
      </g>
    </g>
    <g
       transform="translate(-6,-302)"
       id="g170">
      <path
         d="m 77,471 h 70.11816 q 10,0 10,10 v 19 q 0,10 -10,10 H 77 q -10,0 -10,-10 v -19 q 0,-10 10,-10 z"
         id="path168"
         inkscape:connector-curvature="0"
         style="opacity:0.2;fill:#c0c0c0;stroke:none" />
    </g>
    <g
       transform="translate(-6,-302)"
       id="g174">
      <path
         d="m 70,464 h 70.11816 q 10,0 10,10 v 19 q 0,10 -10,10 H 70 q -10,0 -10,-10 v -19 q 0,-10 10,-10 z"
         id="path172"
         inkscape:connector-curvature="0"
         style="fill:#ffffff;stroke:none" />
    </g>
    <g
       transform="translate(-6,-302)"
       id="g178">
      <path
         d="m 70,464 h 70.11816 q 10,0 10,10 v 19 q 0,10 -10,10 H 70 q -10,0 -10,-10 v -19 q 0,-10 10,-10 z"
         stroke-miterlimit="10"
         id="path176"
         inkscape:connector-curvature="0"
         style="fill:none;stroke:#000000;stroke-miterlimit:10" />
    </g>
    <g
       transform="translate(-6,-302)"
       id="g186">
      <g
         id="g184">
        <path
           id="path180"
           d=""
           inkscape:connector-curvature="0"
           style="fill:none;stroke:none" />
        <text
           font-size="10px"
           font-style="normal"
           font-weight="bold"
           text-decoration="none"
           x="67.263672"
           y="480.5"
           id="text182"
           style="font-style:normal;font-weight:bold;font-size:10px;font-family:Arial;text-decoration:none;text-decoration-line:none;fill:#000000;stroke:none">Pilih Menu Santri</text>
      </g>
    </g>
    <g
       transform="translate(-6,-302)"
       id="g190">
      <path
         d="m 59,543 h 107.89648 q 10,0 10,10 v 19 q 0,10 -10,10 H 59 q -10,0 -10,-10 v -19 q 0,-10 10,-10 z"
         id="path188"
         inkscape:connector-curvature="0"
         style="opacity:0.2;fill:#c0c0c0;stroke:none" />
    </g>
    <g
       transform="translate(-6,-302)"
       id="g194">
      <path
         d="m 52,536 h 107.89648 q 10,0 10,10 v 19 q 0,10 -10,10 H 52 q -10,0 -10,-10 v -19 q 0,-10 10,-10 z"
         id="path192"
         inkscape:connector-curvature="0"
         style="fill:#ffffff;stroke:none" />
    </g>
    <g
       transform="translate(-6,-302)"
       id="g198">
      <path
         d="m 52,536 h 107.89648 q 10,0 10,10 v 19 q 0,10 -10,10 H 52 q -10,0 -10,-10 v -19 q 0,-10 10,-10 z"
         stroke-miterlimit="10"
         id="path196"
         inkscape:connector-curvature="0"
         style="fill:none;stroke:#000000;stroke-miterlimit:10" />
    </g>
    <g
       transform="translate(-6,-302)"
       id="g206">
      <g
         id="g204">
        <path
           id="path200"
           d=""
           inkscape:connector-curvature="0"
           style="fill:none;stroke:none" />
        <text
           font-size="10px"
           font-style="normal"
           font-weight="bold"
           text-decoration="none"
           x="50.091309"
           y="552.5"
           id="text202"
           style="font-style:normal;font-weight:bold;font-size:10px;font-family:Arial;text-decoration:none;text-decoration-line:none;fill:#000000;stroke:none">Memilih Sub Menu Santri</text>
      </g>
    </g>
    <g
       transform="translate(-6,-302)"
       id="g230">
      <path
         d="m 60,631 h 105.11816 q 10,0 10,10 v 19 q 0,10 -10,10 H 60 q -10,0 -10,-10 v -19 q 0,-10 10,-10 z"
         id="path228"
         inkscape:connector-curvature="0"
         style="opacity:0.2;fill:#c0c0c0;stroke:none" />
    </g>
    <g
       transform="translate(-6,-302)"
       id="g234">
      <path
         d="m 53,624 h 105.11816 q 10,0 10,10 v 19 q 0,10 -10,10 H 53 q -10,0 -10,-10 v -19 q 0,-10 10,-10 z"
         id="path232"
         inkscape:connector-curvature="0"
         style="fill:#ffffff;stroke:none" />
    </g>
    <g
       transform="translate(-6,-302)"
       id="g238">
      <path
         d="m 53,624 h 105.11816 q 10,0 10,10 v 19 q 0,10 -10,10 H 53 q -10,0 -10,-10 v -19 q 0,-10 10,-10 z"
         stroke-miterlimit="10"
         id="path236"
         inkscape:connector-curvature="0"
         style="fill:none;stroke:#000000;stroke-miterlimit:10" />
    </g>
    <g
       transform="translate(-6,-302)"
       id="g246">
      <g
         id="g244">
        <path
           id="path240"
           d=""
           inkscape:connector-curvature="0"
           style="fill:none;stroke:none" />
        <text
           font-size="10px"
           font-style="normal"
           font-weight="bold"
           text-decoration="none"
           x="50.808105"
           y="640.5"
           id="text242"
           style="font-style:normal;font-weight:bold;font-size:10px;font-family:Arial;text-decoration:none;text-decoration-line:none;fill:#000000;stroke:none">Melihat Sub Menu Santri</text>
      </g>
    </g>
    <g
       transform="translate(-6,-302)"
       id="g250">
      <path
         d="m 100,723.5 c 0,-6.90356 5.59644,-12.5 12.5,-12.5 6.90356,0 12.5,5.59644 12.5,12.5 0,6.90356 -5.59644,12.5 -12.5,12.5 -6.90356,0 -12.5,-5.59644 -12.5,-12.5 z"
         id="path248"
         inkscape:connector-curvature="0"
         style="opacity:0.2;fill:#c0c0c0;stroke:none" />
    </g>
    <g
       transform="translate(-6,-302)"
       id="g254">
      <path
         d="m 93,716.5 c 0,-6.90356 5.59644,-12.5 12.5,-12.5 6.90356,0 12.5,5.59644 12.5,12.5 0,6.90356 -5.59644,12.5 -12.5,12.5 C 98.59644,729 93,723.40356 93,716.5 Z"
         stroke-miterlimit="10"
         id="path252"
         inkscape:connector-curvature="0"
         style="fill:none;stroke:#000000;stroke-miterlimit:10" />
    </g>
    <g
       transform="translate(-6,-302)"
       id="g258">
      <path
         d="m 98,716.5 c 0,-4.14214 3.35786,-7.5 7.5,-7.5 4.14214,0 7.5,3.35786 7.5,7.5 0,4.14214 -3.35786,7.5 -7.5,7.5 -4.14214,0 -7.5,-3.35786 -7.5,-7.5 z"
         id="path256"
         inkscape:connector-curvature="0"
         style="fill:#000000;stroke:none" />
    </g>
    <g
       transform="translate(-6,-302)"
       id="g262">
      <path
         d="m 105,364 v 27"
         stroke-miterlimit="10"
         id="path260"
         inkscape:connector-curvature="0"
         style="fill:none;stroke:#000000;stroke-miterlimit:10" />
    </g>
    <g
       transform="translate(-6,-302)"
       id="g266">
      <path
         d="M 100.79048,380.83733 105,391 l 4.20952,-10.16267"
         stroke-miterlimit="10"
         id="path264"
         inkscape:connector-curvature="0"
         style="fill:none;stroke:#000000;stroke-miterlimit:10" />
    </g>
    <g
       transform="translate(-6,-302)"
       id="g270">
      <path
         d="m 105,432 v 31"
         stroke-miterlimit="10"
         id="path268"
         inkscape:connector-curvature="0"
         style="fill:none;stroke:#000000;stroke-miterlimit:10" />
    </g>
    <g
       transform="translate(-6,-302)"
       id="g274">
      <path
         d="M 100.79048,452.83733 105,463 l 4.20952,-10.16267"
         stroke-miterlimit="10"
         id="path272"
         inkscape:connector-curvature="0"
         style="fill:none;stroke:#000000;stroke-miterlimit:10" />
    </g>
    <g
       transform="translate(-6,-302)"
       id="g278">
      <path
         d="m 105,504 v 31"
         stroke-miterlimit="10"
         id="path276"
         inkscape:connector-curvature="0"
         style="fill:none;stroke:#000000;stroke-miterlimit:10" />
    </g>
    <g
       transform="translate(-6,-302)"
       id="g282">
      <path
         d="M 100.79048,524.83733 105,535 l 4.20952,-10.16267"
         stroke-miterlimit="10"
         id="path280"
         inkscape:connector-curvature="0"
         style="fill:none;stroke:#000000;stroke-miterlimit:10" />
    </g>
    <g
       transform="translate(-6,-302)"
       id="g298">
      <path
         d="M 179.0992,637.6404 169,642 l 10.22392,4.05851"
         stroke-miterlimit="10"
         id="path296"
         inkscape:connector-curvature="0"
         style="fill:none;stroke:#000000;stroke-miterlimit:10" />
    </g>
    <g
       transform="translate(-6,-302)"
       id="g302">
      <path
         d="m 105,664 v 39"
         stroke-miterlimit="10"
         id="path300"
         inkscape:connector-curvature="0"
         style="fill:none;stroke:#000000;stroke-miterlimit:10" />
    </g>
    <g
       transform="translate(-6,-302)"
       id="g306">
      <path
         d="M 100.79048,692.83733 105,703 l 4.20952,-10.16267"
         stroke-miterlimit="10"
         id="path304"
         inkscape:connector-curvature="0"
         style="fill:none;stroke:#000000;stroke-miterlimit:10" />
    </g>
  </g>
</svg>
