<?xml version="1.0" encoding="UTF-8" standalone="no"?>
<svg
   xmlns:dc="http://purl.org/dc/elements/1.1/"
   xmlns:cc="http://creativecommons.org/ns#"
   xmlns:rdf="http://www.w3.org/1999/02/22-rdf-syntax-ns#"
   xmlns:svg="http://www.w3.org/2000/svg"
   xmlns="http://www.w3.org/2000/svg"
   xmlns:sodipodi="http://sodipodi.sourceforge.net/DTD/sodipodi-0.dtd"
   xmlns:inkscape="http://www.inkscape.org/namespaces/inkscape"
   version="1.1"
   width="501"
   height="452"
   id="svg310"
   sodipodi:docname="ActivityDiagram Info Pesantren.svg"
   inkscape:version="0.92.4 (0.92.4+201912240539+70224e8)">
  <metadata
     id="metadata314">
    <rdf:RDF>
      <cc:Work
         rdf:about="">
        <dc:format>image/svg+xml</dc:format>
        <dc:type
           rdf:resource="http://purl.org/dc/dcmitype/StillImage" />
      </cc:Work>
    </rdf:RDF>
  </metadata>
  <sodipodi:namedview
     pagecolor="#ffffff"
     bordercolor="#666666"
     borderopacity="1"
     objecttolerance="10"
     gridtolerance="10"
     guidetolerance="10"
     inkscape:pageopacity="0"
     inkscape:pageshadow="2"
     inkscape:window-width="1366"
     inkscape:window-height="720"
     id="namedview312"
     showgrid="false"
     inkscape:zoom="0.49301397"
     inkscape:cx="250.5"
     inkscape:cy="226"
     inkscape:window-x="0"
     inkscape:window-y="24"
     inkscape:window-maximized="1"
     inkscape:current-layer="svg310" />
  <defs
     id="defs2" />
  <g
     id="g102"
     transform="translate(-4,-302)"
     inkscape:export-xdpi="500"
     inkscape:export-ydpi="500">
    <rect
       style="fill:#ffffff;stroke:none"
       id="rect100"
       height="18"
       width="216"
       y="312"
       x="14" />
  </g>
  <g
     id="g106"
     transform="translate(-4,-302)"
     inkscape:export-xdpi="500"
     inkscape:export-ydpi="500">
    <path
       style="fill:none;stroke:#000000;stroke-width:2;stroke-miterlimit:10"
       inkscape:connector-curvature="0"
       id="path104"
       stroke-miterlimit="10"
       d="m 14,312 h 216 v 18 H 14 Z" />
  </g>
  <g
     id="g110"
     transform="translate(-4,-302)"
     inkscape:export-xdpi="500"
     inkscape:export-ydpi="500">
    <path
       style="fill:none;stroke:#000000;stroke-width:2;stroke-miterlimit:10"
       inkscape:connector-curvature="0"
       id="path108"
       stroke-miterlimit="10"
       d="M 14,744 V 312 h 216 v 432" />
  </g>
  <g
     id="g118"
     transform="translate(-4,-302)"
     inkscape:export-xdpi="500"
     inkscape:export-ydpi="500">
    <g
       id="g116">
      <path
         style="fill:none;stroke:none"
         inkscape:connector-curvature="0"
         d=""
         id="path112" />
      <text
         style="font-style:normal;font-weight:normal;font-size:10px;font-family:Arial;text-decoration:none;text-decoration-line:none;fill:#000000;stroke:none"
         id="text114"
         y="326"
         x="81.333496"
         text-decoration="none"
         font-weight="normal"
         font-style="normal"
         font-size="10px">Admin. Orang Tua</text>
    </g>
  </g>
  <g
     id="g122"
     transform="translate(-4,-302)"
     inkscape:export-xdpi="500"
     inkscape:export-ydpi="500">
    <rect
       style="fill:#ffffff;stroke:none"
       id="rect120"
       height="18"
       width="264"
       y="312"
       x="231" />
  </g>
  <g
     id="g126"
     transform="translate(-4,-302)"
     inkscape:export-xdpi="500"
     inkscape:export-ydpi="500">
    <path
       style="fill:none;stroke:#000000;stroke-width:2;stroke-miterlimit:10"
       inkscape:connector-curvature="0"
       id="path124"
       stroke-miterlimit="10"
       d="m 231,312 h 264 v 18 H 231 Z" />
  </g>
  <g
     id="g130"
     transform="translate(-4,-302)"
     inkscape:export-xdpi="500"
     inkscape:export-ydpi="500">
    <path
       style="fill:none;stroke:#000000;stroke-width:2;stroke-miterlimit:10"
       inkscape:connector-curvature="0"
       id="path128"
       stroke-miterlimit="10"
       d="M 231,744 V 312 h 264 v 432" />
  </g>
  <g
     id="g138"
     transform="translate(-4,-302)"
     inkscape:export-xdpi="500"
     inkscape:export-ydpi="500">
    <g
       id="g136">
      <path
         style="fill:none;stroke:none"
         inkscape:connector-curvature="0"
         d=""
         id="path132" />
      <text
         style="font-style:normal;font-weight:normal;font-size:10px;font-family:Arial;text-decoration:none;text-decoration-line:none;fill:#000000;stroke:none"
         id="text134"
         y="326"
         x="347.71924"
         text-decoration="none"
         font-weight="normal"
         font-style="normal"
         font-size="10px">Sistem</text>
    </g>
  </g>
  <g
     id="g142"
     transform="translate(-4,-302)"
     inkscape:export-xdpi="500"
     inkscape:export-ydpi="500">
    <path
       style="opacity:0.2;fill:#c0c0c0;stroke:none"
       inkscape:connector-curvature="0"
       id="path140"
       d="m 120,360.5 c 0,-5.24671 4.25329,-9.5 9.5,-9.5 5.24671,0 9.5,4.25329 9.5,9.5 0,5.24671 -4.25329,9.5 -9.5,9.5 -5.24671,0 -9.5,-4.25329 -9.5,-9.5 z" />
  </g>
  <g
     id="g146"
     transform="translate(-4,-302)"
     inkscape:export-xdpi="500"
     inkscape:export-ydpi="500">
    <path
       style="fill:#000000;stroke:none"
       inkscape:connector-curvature="0"
       id="path144"
       d="m 113,353.5 c 0,-5.24671 4.25329,-9.5 9.5,-9.5 5.24671,0 9.5,4.25329 9.5,9.5 0,5.24671 -4.25329,9.5 -9.5,9.5 -5.24671,0 -9.5,-4.25329 -9.5,-9.5 z" />
  </g>
  <g
     id="g150"
     transform="translate(-4,-302)"
     inkscape:export-xdpi="500"
     inkscape:export-ydpi="500">
    <path
       style="opacity:0.2;fill:#c0c0c0;stroke:none"
       inkscape:connector-curvature="0"
       id="path148"
       d="m 97,399 h 64.0293 q 10,0 10,10 v 19 q 0,10 -10,10 H 97 q -10,0 -10,-10 v -19 q 0,-10 10,-10 z" />
  </g>
  <g
     id="g154"
     transform="translate(-4,-302)"
     inkscape:export-xdpi="500"
     inkscape:export-ydpi="500">
    <path
       style="fill:#ffffff;stroke:none"
       inkscape:connector-curvature="0"
       id="path152"
       d="m 90,392 h 64.0293 q 10,0 10,10 v 19 q 0,10 -10,10 H 90 q -10,0 -10,-10 v -19 q 0,-10 10,-10 z" />
  </g>
  <g
     id="g158"
     transform="translate(-4,-302)"
     inkscape:export-xdpi="500"
     inkscape:export-ydpi="500">
    <path
       style="fill:none;stroke:#000000;stroke-miterlimit:10"
       inkscape:connector-curvature="0"
       id="path156"
       stroke-miterlimit="10"
       d="m 90,392 h 64.0293 q 10,0 10,10 v 19 q 0,10 -10,10 H 90 q -10,0 -10,-10 v -19 q 0,-10 10,-10 z" />
  </g>
  <g
     id="g166"
     transform="translate(-4,-302)"
     inkscape:export-xdpi="500"
     inkscape:export-ydpi="500">
    <g
       id="g164">
      <path
         style="fill:none;stroke:none"
         inkscape:connector-curvature="0"
         d=""
         id="path160" />
      <text
         style="font-style:normal;font-weight:bold;font-size:10px;font-family:Arial;text-decoration:none;text-decoration-line:none;fill:#000000;stroke:none"
         id="text162"
         y="408.5"
         x="85.88916"
         text-decoration="none"
         font-weight="bold"
         font-style="normal"
         font-size="10px">Halaman Utama</text>
    </g>
  </g>
  <g
     id="g170"
     transform="translate(-4,-302)"
     inkscape:export-xdpi="500"
     inkscape:export-ydpi="500">
    <path
       style="opacity:0.2;fill:#c0c0c0;stroke:none"
       inkscape:connector-curvature="0"
       id="path168"
       d="m 74,471 h 111.23633 q 10,0 10,10 v 19 q 0,10 -10,10 H 74 q -10,0 -10,-10 v -19 q 0,-10 10,-10 z" />
  </g>
  <g
     id="g174"
     transform="translate(-4,-302)"
     inkscape:export-xdpi="500"
     inkscape:export-ydpi="500">
    <path
       style="fill:#ffffff;stroke:none"
       inkscape:connector-curvature="0"
       id="path172"
       d="m 67,464 h 111.23633 q 10,0 10,10 v 19 q 0,10 -10,10 H 67 q -10,0 -10,-10 v -19 q 0,-10 10,-10 z" />
  </g>
  <g
     id="g178"
     transform="translate(-4,-302)"
     inkscape:export-xdpi="500"
     inkscape:export-ydpi="500">
    <path
       style="fill:none;stroke:#000000;stroke-miterlimit:10"
       inkscape:connector-curvature="0"
       id="path176"
       stroke-miterlimit="10"
       d="m 67,464 h 111.23633 q 10,0 10,10 v 19 q 0,10 -10,10 H 67 q -10,0 -10,-10 v -19 q 0,-10 10,-10 z" />
  </g>
  <g
     id="g186"
     transform="translate(-4,-302)"
     inkscape:export-xdpi="500"
     inkscape:export-ydpi="500">
    <g
       id="g184">
      <path
         style="fill:none;stroke:none"
         inkscape:connector-curvature="0"
         d=""
         id="path180" />
      <text
         style="font-style:normal;font-weight:bold;font-size:10px;font-family:Arial;text-decoration:none;text-decoration-line:none;fill:#000000;stroke:none"
         id="text182"
         y="480.5"
         x="65.362305"
         text-decoration="none"
         font-weight="bold"
         font-style="normal"
         font-size="10px">Pilih Menu Info Pesantren</text>
    </g>
  </g>
  <g
     id="g190"
     transform="translate(-4,-302)"
     inkscape:export-xdpi="500"
     inkscape:export-ydpi="500">
    <path
       style="opacity:0.2;fill:#c0c0c0;stroke:none"
       inkscape:connector-curvature="0"
       id="path188"
       d="m 55,543 h 149.01465 q 10,0 10,10 v 19 q 0,10 -10,10 H 55 q -10,0 -10,-10 v -19 q 0,-10 10,-10 z" />
  </g>
  <g
     id="g194"
     transform="translate(-4,-302)"
     inkscape:export-xdpi="500"
     inkscape:export-ydpi="500">
    <path
       style="fill:#ffffff;stroke:none"
       inkscape:connector-curvature="0"
       id="path192"
       d="m 48,536 h 149.01465 q 10,0 10,10 v 19 q 0,10 -10,10 H 48 q -10,0 -10,-10 v -19 q 0,-10 10,-10 z" />
  </g>
  <g
     id="g198"
     transform="translate(-4,-302)"
     inkscape:export-xdpi="500"
     inkscape:export-ydpi="500">
    <path
       style="fill:none;stroke:#000000;stroke-miterlimit:10"
       inkscape:connector-curvature="0"
       id="path196"
       stroke-miterlimit="10"
       d="m 48,536 h 149.01465 q 10,0 10,10 v 19 q 0,10 -10,10 H 48 q -10,0 -10,-10 v -19 q 0,-10 10,-10 z" />
  </g>
  <g
     id="g206"
     transform="translate(-4,-302)"
     inkscape:export-xdpi="500"
     inkscape:export-ydpi="500">
    <g
       id="g204">
      <path
         style="fill:none;stroke:none"
         inkscape:connector-curvature="0"
         d=""
         id="path200" />
      <text
         style="font-style:normal;font-weight:bold;font-size:10px;font-family:Arial;text-decoration:none;text-decoration-line:none;fill:#000000;stroke:none"
         id="text202"
         y="552.5"
         x="47.189941"
         text-decoration="none"
         font-weight="bold"
         font-style="normal"
         font-size="10px">Memilih Sub Menu Info Pesantren</text>
    </g>
  </g>
  <g
     id="g210"
     transform="translate(-4,-302)"
     inkscape:export-xdpi="500"
     inkscape:export-ydpi="500">
    <path
       style="opacity:0.2;fill:#c0c0c0;stroke:none"
       inkscape:connector-curvature="0"
       id="path208"
       d="m 283,543 h 175.1377 q 10,0 10,10 v 19 q 0,10 -10,10 H 283 q -10,0 -10,-10 v -19 q 0,-10 10,-10 z" />
  </g>
  <g
     id="g214"
     transform="translate(-4,-302)"
     inkscape:export-xdpi="500"
     inkscape:export-ydpi="500">
    <path
       style="fill:#ffffff;stroke:none"
       inkscape:connector-curvature="0"
       id="path212"
       d="m 276,536 h 175.1377 q 10,0 10,10 v 19 q 0,10 -10,10 H 276 q -10,0 -10,-10 v -19 q 0,-10 10,-10 z" />
  </g>
  <g
     id="g218"
     transform="translate(-4,-302)"
     inkscape:export-xdpi="500"
     inkscape:export-ydpi="500">
    <path
       style="fill:none;stroke:#000000;stroke-miterlimit:10"
       inkscape:connector-curvature="0"
       id="path216"
       stroke-miterlimit="10"
       d="m 276,536 h 175.1377 q 10,0 10,10 v 19 q 0,10 -10,10 H 276 q -10,0 -10,-10 v -19 q 0,-10 10,-10 z" />
  </g>
  <g
     id="g226"
     transform="translate(-4,-302)"
     inkscape:export-xdpi="500"
     inkscape:export-ydpi="500">
    <g
       id="g224">
      <path
         style="fill:none;stroke:none"
         inkscape:connector-curvature="0"
         d=""
         id="path220" />
      <text
         style="font-style:normal;font-weight:bold;font-size:10px;font-family:Arial;text-decoration:none;text-decoration-line:none;fill:#000000;stroke:none"
         id="text222"
         y="552.5"
         x="275.73926"
         text-decoration="none"
         font-weight="bold"
         font-style="normal"
         font-size="10px">Menampilkan Sub Menu Info Pesantren</text>
    </g>
  </g>
  <g
     id="g230"
     transform="translate(-4,-302)"
     inkscape:export-xdpi="500"
     inkscape:export-ydpi="500">
    <path
       style="opacity:0.2;fill:#c0c0c0;stroke:none"
       inkscape:connector-curvature="0"
       id="path228"
       d="m 56,623 h 146.23633 q 10,0 10,10 v 19 q 0,10 -10,10 H 56 q -10,0 -10,-10 v -19 q 0,-10 10,-10 z" />
  </g>
  <g
     id="g234"
     transform="translate(-4,-302)"
     inkscape:export-xdpi="500"
     inkscape:export-ydpi="500">
    <path
       style="fill:#ffffff;stroke:none"
       inkscape:connector-curvature="0"
       id="path232"
       d="m 49,616 h 146.23633 q 10,0 10,10 v 19 q 0,10 -10,10 H 49 q -10,0 -10,-10 v -19 q 0,-10 10,-10 z" />
  </g>
  <g
     id="g238"
     transform="translate(-4,-302)"
     inkscape:export-xdpi="500"
     inkscape:export-ydpi="500">
    <path
       style="fill:none;stroke:#000000;stroke-miterlimit:10"
       inkscape:connector-curvature="0"
       id="path236"
       stroke-miterlimit="10"
       d="m 49,616 h 146.23633 q 10,0 10,10 v 19 q 0,10 -10,10 H 49 q -10,0 -10,-10 v -19 q 0,-10 10,-10 z" />
  </g>
  <g
     id="g246"
     transform="translate(-4,-302)"
     inkscape:export-xdpi="500"
     inkscape:export-ydpi="500">
    <g
       id="g244">
      <path
         style="fill:none;stroke:none"
         inkscape:connector-curvature="0"
         d=""
         id="path240" />
      <text
         style="font-style:normal;font-weight:bold;font-size:10px;font-family:Arial;text-decoration:none;text-decoration-line:none;fill:#000000;stroke:none"
         id="text242"
         y="632.5"
         x="47.906738"
         text-decoration="none"
         font-weight="bold"
         font-style="normal"
         font-size="10px">Melihat Sub Menu Info Pesantren</text>
    </g>
  </g>
  <g
     id="g250"
     transform="translate(-4,-302)"
     inkscape:export-xdpi="500"
     inkscape:export-ydpi="500">
    <path
       style="opacity:0.2;fill:#c0c0c0;stroke:none"
       inkscape:connector-curvature="0"
       id="path248"
       d="m 117,723.5 c 0,-6.90356 5.59644,-12.5 12.5,-12.5 6.90356,0 12.5,5.59644 12.5,12.5 0,6.90356 -5.59644,12.5 -12.5,12.5 -6.90356,0 -12.5,-5.59644 -12.5,-12.5 z" />
  </g>
  <g
     id="g254"
     transform="translate(-4,-302)"
     inkscape:export-xdpi="500"
     inkscape:export-ydpi="500">
    <path
       style="fill:none;stroke:#000000;stroke-miterlimit:10"
       inkscape:connector-curvature="0"
       id="path252"
       stroke-miterlimit="10"
       d="m 110,716.5 c 0,-6.90356 5.59644,-12.5 12.5,-12.5 6.90356,0 12.5,5.59644 12.5,12.5 0,6.90356 -5.59644,12.5 -12.5,12.5 -6.90356,0 -12.5,-5.59644 -12.5,-12.5 z" />
  </g>
  <g
     id="g258"
     transform="translate(-4,-302)"
     inkscape:export-xdpi="500"
     inkscape:export-ydpi="500">
    <path
       style="fill:#000000;stroke:none"
       inkscape:connector-curvature="0"
       id="path256"
       d="m 115,716.5 c 0,-4.14214 3.35786,-7.5 7.5,-7.5 4.14214,0 7.5,3.35786 7.5,7.5 0,4.14214 -3.35786,7.5 -7.5,7.5 -4.14214,0 -7.5,-3.35786 -7.5,-7.5 z" />
  </g>
  <g
     id="g262"
     transform="translate(-4,-302)"
     inkscape:export-xdpi="500"
     inkscape:export-ydpi="500">
    <path
       style="fill:none;stroke:#000000;stroke-miterlimit:10"
       inkscape:connector-curvature="0"
       id="path260"
       stroke-miterlimit="10"
       d="m 120,363 v 29" />
  </g>
  <g
     id="g266"
     transform="translate(-4,-302)"
     inkscape:export-xdpi="500"
     inkscape:export-ydpi="500">
    <path
       style="fill:none;stroke:#000000;stroke-miterlimit:10"
       inkscape:connector-curvature="0"
       id="path264"
       stroke-miterlimit="10"
       d="M 115.79048,381.83733 120,392 l 4.20952,-10.16267" />
  </g>
  <g
     id="g270"
     transform="translate(-4,-302)"
     inkscape:export-xdpi="500"
     inkscape:export-ydpi="500">
    <path
       style="fill:none;stroke:#000000;stroke-miterlimit:10"
       inkscape:connector-curvature="0"
       id="path268"
       stroke-miterlimit="10"
       d="m 111,431 v 33" />
  </g>
  <g
     id="g274"
     transform="translate(-4,-302)"
     inkscape:export-xdpi="500"
     inkscape:export-ydpi="500">
    <path
       style="fill:none;stroke:#000000;stroke-miterlimit:10"
       inkscape:connector-curvature="0"
       id="path272"
       stroke-miterlimit="10"
       d="M 106.79048,453.83733 111,464 l 4.20952,-10.16267" />
  </g>
  <g
     id="g278"
     transform="translate(-4,-302)"
     inkscape:export-xdpi="500"
     inkscape:export-ydpi="500">
    <path
       style="fill:none;stroke:#000000;stroke-miterlimit:10"
       inkscape:connector-curvature="0"
       id="path276"
       stroke-miterlimit="10"
       d="m 125,503 v 33" />
  </g>
  <g
     id="g282"
     transform="translate(-4,-302)"
     inkscape:export-xdpi="500"
     inkscape:export-ydpi="500">
    <path
       style="fill:none;stroke:#000000;stroke-miterlimit:10"
       inkscape:connector-curvature="0"
       id="path280"
       stroke-miterlimit="10"
       d="M 120.79048,525.83733 125,536 l 4.20952,-10.16267" />
  </g>
  <g
     id="g286"
     transform="translate(-4,-302)"
     inkscape:export-xdpi="500"
     inkscape:export-ydpi="500">
    <path
       style="fill:none;stroke:#000000;stroke-miterlimit:10"
       inkscape:connector-curvature="0"
       id="path284"
       stroke-miterlimit="10"
       d="m 207,555 h 59" />
  </g>
  <g
     id="g290"
     transform="translate(-4,-302)"
     inkscape:export-xdpi="500"
     inkscape:export-ydpi="500">
    <path
       style="fill:none;stroke:#000000;stroke-miterlimit:10"
       inkscape:connector-curvature="0"
       id="path288"
       stroke-miterlimit="10"
       d="M 255.83733,559.20952 266,555 255.83733,550.79048" />
  </g>
  <g
     id="g294"
     transform="translate(-4,-302)"
     inkscape:export-xdpi="500"
     inkscape:export-ydpi="500">
    <path
       style="fill:none;stroke:#000000;stroke-miterlimit:10"
       inkscape:connector-curvature="0"
       id="path292"
       stroke-miterlimit="10"
       d="m 318,575 v 65 H 205" />
  </g>
  <g
     id="g298"
     transform="translate(-4,-302)"
     inkscape:export-xdpi="500"
     inkscape:export-ydpi="500">
    <path
       style="fill:none;stroke:#000000;stroke-miterlimit:10"
       inkscape:connector-curvature="0"
       id="path296"
       stroke-miterlimit="10"
       d="M 215.16267,635.79048 205,640 l 10.16267,4.20952" />
  </g>
  <g
     id="g302"
     transform="translate(-4,-302)"
     inkscape:export-xdpi="500"
     inkscape:export-ydpi="500">
    <path
       style="fill:none;stroke:#000000;stroke-miterlimit:10"
       inkscape:connector-curvature="0"
       id="path300"
       stroke-miterlimit="10"
       d="m 121,655 v 49" />
  </g>
  <g
     id="g306"
     transform="translate(-4,-302)"
     inkscape:export-xdpi="500"
     inkscape:export-ydpi="500">
    <path
       style="fill:none;stroke:#000000;stroke-miterlimit:10"
       inkscape:connector-curvature="0"
       id="path304"
       stroke-miterlimit="10"
       d="M 116.79048,693.83733 121,704 l 4.20952,-10.16267" />
  </g>
</svg>
