<?xml version="1.0" encoding="UTF-8" standalone="no"?>
<svg
   xmlns:dc="http://purl.org/dc/elements/1.1/"
   xmlns:cc="http://creativecommons.org/ns#"
   xmlns:rdf="http://www.w3.org/1999/02/22-rdf-syntax-ns#"
   xmlns:svg="http://www.w3.org/2000/svg"
   xmlns="http://www.w3.org/2000/svg"
   xmlns:sodipodi="http://sodipodi.sourceforge.net/DTD/sodipodi-0.dtd"
   xmlns:inkscape="http://www.inkscape.org/namespaces/inkscape"
   version="1.1"
   width="404"
   height="452"
   id="svg282"
   sodipodi:docname="Activity Diagram Log Out!ActivityDiagram Log Out_17.svg"
   inkscape:version="0.92.4 (0.92.4+201912240539+70224e8)">
  <metadata
     id="metadata286">
    <rdf:RDF>
      <cc:Work
         rdf:about="">
        <dc:format>image/svg+xml</dc:format>
        <dc:type
           rdf:resource="http://purl.org/dc/dcmitype/StillImage" />
      </cc:Work>
    </rdf:RDF>
  </metadata>
  <sodipodi:namedview
     pagecolor="#ffffff"
     bordercolor="#666666"
     borderopacity="1"
     objecttolerance="10"
     gridtolerance="10"
     guidetolerance="10"
     inkscape:pageopacity="0"
     inkscape:pageshadow="2"
     inkscape:window-width="1366"
     inkscape:window-height="720"
     id="namedview284"
     showgrid="false"
     inkscape:zoom="0.36919735"
     inkscape:cx="132.25127"
     inkscape:cy="161.76575"
     inkscape:window-x="0"
     inkscape:window-y="24"
     inkscape:window-maximized="1"
     inkscape:current-layer="g280" />
  <defs
     id="defs2" />
  <g
     id="g280">
    <g
       transform="translate(-6,-302) scale(1,1)"
       id="g102"
       inkscape:export-xdpi="500"
       inkscape:export-ydpi="500">
      <rect
         fill="#ffffff"
         stroke="none"
         x="16"
         y="312"
         width="179"
         height="18"
         id="rect100" />
    </g>
    <g
       transform="translate(-6,-302) scale(1,1)"
       id="g106"
       inkscape:export-xdpi="500"
       inkscape:export-ydpi="500">
      <path
         fill="none"
         stroke="#000000"
         d="M 16 312 L 195 312 L 195 330 L 16 330 L 16 312 Z Z"
         stroke-miterlimit="10"
         stroke-width="2"
         id="path104" />
    </g>
    <g
       transform="translate(-6,-302) scale(1,1)"
       id="g110"
       inkscape:export-xdpi="500"
       inkscape:export-ydpi="500">
      <path
         fill="none"
         stroke="#000000"
         d="M 16 744 L 16 312 L 195 312 L 195 744"
         stroke-miterlimit="10"
         stroke-width="2"
         id="path108" />
    </g>
    <g
       transform="translate(-6,-302) scale(1,1)"
       id="g118"
       inkscape:export-xdpi="500"
       inkscape:export-ydpi="500">
      <g
         id="g116">
        <path
           fill="none"
           stroke="none"
           id="path112" />
        <text
           fill="#000000"
           stroke="none"
           font-family="Arial"
           font-size="10px"
           font-style="normal"
           font-weight="normal"
           text-decoration="none"
           x="64.83349609375"
           y="326"
           id="text114">Admin. Orang Tua</text>
      </g>
    </g>
    <g
       transform="translate(-6,-302) scale(1,1)"
       id="g122"
       inkscape:export-xdpi="500"
       inkscape:export-ydpi="500">
      <rect
         fill="#ffffff"
         stroke="none"
         x="207"
         y="312"
         width="193"
         height="18"
         id="rect120" />
    </g>
    <g
       transform="translate(-6,-302) scale(1,1)"
       id="g126"
       inkscape:export-xdpi="500"
       inkscape:export-ydpi="500">
      <path
         fill="none"
         stroke="#000000"
         d="M 207 312 L 400 312 L 400 330 L 207 330 L 207 312 Z Z"
         stroke-miterlimit="10"
         stroke-width="2"
         id="path124" />
    </g>
    <g
       transform="translate(-6,-302) scale(1,1)"
       id="g130"
       inkscape:export-xdpi="500"
       inkscape:export-ydpi="500">
      <path
         fill="none"
         stroke="#000000"
         d="M 207 744 L 207 312 L 400 312 L 400 744"
         stroke-miterlimit="10"
         stroke-width="2"
         id="path128" />
    </g>
    <g
       transform="translate(-6,-302) scale(1,1)"
       id="g138"
       inkscape:export-xdpi="500"
       inkscape:export-ydpi="500">
      <g
         id="g136">
        <path
           fill="none"
           stroke="none"
           id="path132" />
        <text
           fill="#000000"
           stroke="none"
           font-family="Arial"
           font-size="10px"
           font-style="normal"
           font-weight="normal"
           text-decoration="none"
           x="288.21923828125"
           y="326"
           id="text134">Sistem</text>
      </g>
    </g>
    <g
       transform="translate(-6,-302) scale(1,1)"
       id="g142"
       inkscape:export-xdpi="500"
       inkscape:export-ydpi="500">
      <path
         fill="#C0C0C0"
         stroke="none"
         d="M 103 360.5 C 103 355.2532944 107.2532944 351 112.5 351 C 117.7467056 351 122 355.2532944 122 360.5 C 122 365.7467056 117.7467056 370 112.5 370 C 107.2532944 370 103 365.7467056 103 360.5 Z"
         opacity="0.2"
         id="path140" />
    </g>
    <g
       transform="translate(-6,-302) scale(1,1)"
       id="g146"
       inkscape:export-xdpi="500"
       inkscape:export-ydpi="500">
      <path
         fill="#000000"
         stroke="none"
         d="M 96 353.5 C 96 348.2532944 100.2532944 344 105.5 344 C 110.7467056 344 115 348.2532944 115 353.5 C 115 358.7467056 110.7467056 363 105.5 363 C 100.2532944 363 96 358.7467056 96 353.5 Z"
         id="path144" />
    </g>
    <g
       transform="translate(-6,-302) scale(1,1)"
       id="g150"
       inkscape:export-xdpi="500"
       inkscape:export-ydpi="500">
      <path
         fill="#C0C0C0"
         stroke="none"
         d="M 80 399 L 144.029296875 399 Q 154.029296875 399 154.029296875 409 L 154.029296875 428 Q 154.029296875 438 144.029296875 438 L 80 438 Q 70 438 70 428 L 70 409 Q 70 399 80 399 Z"
         opacity="0.2"
         id="path148" />
    </g>
    <g
       transform="translate(-6,-302) scale(1,1)"
       id="g154"
       inkscape:export-xdpi="500"
       inkscape:export-ydpi="500">
      <path
         fill="#ffffff"
         stroke="none"
         d="M 73 392 L 137.029296875 392 Q 147.029296875 392 147.029296875 402 L 147.029296875 421 Q 147.029296875 431 137.029296875 431 L 73 431 Q 63 431 63 421 L 63 402 Q 63 392 73 392 Z"
         id="path152" />
    </g>
    <g
       transform="translate(-6,-302) scale(1,1)"
       id="g158"
       inkscape:export-xdpi="500"
       inkscape:export-ydpi="500">
      <path
         fill="none"
         stroke="#000000"
         d="M 73 392 L 137.029296875 392 Q 147.029296875 392 147.029296875 402 L 147.029296875 421 Q 147.029296875 431 137.029296875 431 L 73 431 Q 63 431 63 421 L 63 402 Q 63 392 73 392 Z"
         stroke-miterlimit="10"
         id="path156" />
    </g>
    <g
       transform="translate(-6,-302) scale(1,1)"
       id="g166"
       inkscape:export-xdpi="500"
       inkscape:export-ydpi="500">
      <g
         id="g164">
        <path
           fill="none"
           stroke="none"
           id="path160" />
        <text
           fill="#000000"
           stroke="none"
           font-family="Arial"
           font-size="10px"
           font-style="normal"
           font-weight="bold"
           text-decoration="none"
           x="68.88916015625"
           y="408.5"
           id="text162">Halaman Utama</text>
      </g>
    </g>
    <g
       transform="translate(-6,-302) scale(1,1)"
       id="g170"
       inkscape:export-xdpi="500"
       inkscape:export-ydpi="500">
      <path
         fill="#C0C0C0"
         stroke="none"
         d="M 72 471 L 152.0986328125 471 Q 162.0986328125 471 162.0986328125 481 L 162.0986328125 500 Q 162.0986328125 510 152.0986328125 510 L 72 510 Q 62 510 62 500 L 62 481 Q 62 471 72 471 Z"
         opacity="0.2"
         id="path168" />
    </g>
    <g
       transform="translate(-6,-302) scale(1,1)"
       id="g174"
       inkscape:export-xdpi="500"
       inkscape:export-ydpi="500">
      <path
         fill="#ffffff"
         stroke="none"
         d="M 65 464 L 145.0986328125 464 Q 155.0986328125 464 155.0986328125 474 L 155.0986328125 493 Q 155.0986328125 503 145.0986328125 503 L 65 503 Q 55 503 55 493 L 55 474 Q 55 464 65 464 Z"
         id="path172" />
    </g>
    <g
       transform="translate(-6,-302) scale(1,1)"
       id="g178"
       inkscape:export-xdpi="500"
       inkscape:export-ydpi="500">
      <path
         fill="none"
         stroke="#000000"
         d="M 65 464 L 145.0986328125 464 Q 155.0986328125 464 155.0986328125 474 L 155.0986328125 493 Q 155.0986328125 503 145.0986328125 503 L 65 503 Q 55 503 55 493 L 55 474 Q 55 464 65 464 Z"
         stroke-miterlimit="10"
         id="path176" />
    </g>
    <g
       transform="translate(-6,-302) scale(1,1)"
       id="g186"
       inkscape:export-xdpi="500"
       inkscape:export-ydpi="500">
      <g
         id="g184">
        <path
           fill="none"
           stroke="none"
           id="path180" />
        <text
           fill="#000000"
           stroke="none"
           font-family="Arial"
           font-size="10px"
           font-style="normal"
           font-weight="bold"
           text-decoration="none"
           x="62.52490234375"
           y="480.5"
           id="text182">Pilih Menu Log Out</text>
      </g>
    </g>
    <g
       transform="translate(-6,-302) scale(1,1)"
       id="g190"
       inkscape:export-xdpi="500"
       inkscape:export-ydpi="500">
      <path
         fill="#C0C0C0"
         stroke="none"
         d="M 60 631 L 165.1181640625 631 Q 175.1181640625 631 175.1181640625 641 L 175.1181640625 660 Q 175.1181640625 670 165.1181640625 670 L 60 670 Q 50 670 50 660 L 50 641 Q 50 631 60 631 Z"
         opacity="0.2"
         id="path188" />
    </g>
    <g
       transform="translate(-6,-302) scale(1,1)"
       id="g194"
       inkscape:export-xdpi="500"
       inkscape:export-ydpi="500">
      <path
         fill="#ffffff"
         stroke="none"
         d="M 53 624 L 158.1181640625 624 Q 168.1181640625 624 168.1181640625 634 L 168.1181640625 653 Q 168.1181640625 663 158.1181640625 663 L 53 663 Q 43 663 43 653 L 43 634 Q 43 624 53 624 Z"
         id="path192" />
    </g>
    <g
       transform="translate(-6,-302) scale(1,1)"
       id="g198"
       inkscape:export-xdpi="500"
       inkscape:export-ydpi="500">
      <path
         fill="none"
         stroke="#000000"
         d="M 53 624 L 158.1181640625 624 Q 168.1181640625 624 168.1181640625 634 L 168.1181640625 653 Q 168.1181640625 663 158.1181640625 663 L 53 663 Q 43 663 43 653 L 43 634 Q 43 624 53 624 Z"
         stroke-miterlimit="10"
         id="path196" />
    </g>
    <g
       transform="translate(-6,-302) scale(1,1)"
       id="g206"
       inkscape:export-xdpi="500"
       inkscape:export-ydpi="500">
      <g
         id="g204">
        <path
           fill="none"
           stroke="none"
           id="path200" />
        <text
           fill="#000000"
           stroke="none"
           font-family="Arial"
           font-size="10px"
           font-style="normal"
           font-weight="bold"
           text-decoration="none"
           x="59.70703125"
           y="640.5"
           id="text202">Melihat Form  Log In</text>
      </g>
    </g>
    <g
       transform="translate(-6,-302) scale(1,1)"
       id="g210"
       inkscape:export-xdpi="500"
       inkscape:export-ydpi="500">
      <path
         fill="#C0C0C0"
         stroke="none"
         d="M 100 723.5 C 100 716.59644 105.59644 711 112.5 711 C 119.40356 711 125 716.59644 125 723.5 C 125 730.40356 119.40356 736 112.5 736 C 105.59644 736 100 730.40356 100 723.5 Z"
         opacity="0.2"
         id="path208" />
    </g>
    <g
       transform="translate(-6,-302) scale(1,1)"
       id="g214"
       inkscape:export-xdpi="500"
       inkscape:export-ydpi="500">
      <path
         fill="none"
         stroke="#000000"
         d="M 93 716.5 C 93 709.59644 98.59644 704 105.5 704 C 112.40356 704 118 709.59644 118 716.5 C 118 723.40356 112.40356 729 105.5 729 C 98.59644 729 93 723.40356 93 716.5 Z"
         stroke-miterlimit="10"
         id="path212" />
    </g>
    <g
       transform="translate(-6,-302) scale(1,1)"
       id="g218"
       inkscape:export-xdpi="500"
       inkscape:export-ydpi="500">
      <path
         fill="#000000"
         stroke="none"
         d="M 98 716.5 C 98 712.357864 101.357864 709 105.5 709 C 109.642136 709 113 712.357864 113 716.5 C 113 720.642136 109.642136 724 105.5 724 C 101.357864 724 98 720.642136 98 716.5 Z"
         id="path216" />
    </g>
    <g
       transform="translate(-6,-302) scale(1,1)"
       id="g222"
       inkscape:export-xdpi="500"
       inkscape:export-ydpi="500">
      <path
         fill="none"
         stroke="#000000"
         d="M 105 364 L 105 391"
         stroke-miterlimit="10"
         id="path220" />
    </g>
    <g
       transform="translate(-6,-302) scale(1,1)"
       id="g226"
       inkscape:export-xdpi="500"
       inkscape:export-ydpi="500">
      <path
         fill="none"
         stroke="#000000"
         d="M 100.79048224398402 380.83732514237585 L 105 391 L 109.20951775601598 380.83732514237585"
         stroke-miterlimit="10"
         id="path224" />
    </g>
    <g
       transform="translate(-6,-302) scale(1,1)"
       id="g230"
       inkscape:export-xdpi="500"
       inkscape:export-ydpi="500">
      <path
         fill="none"
         stroke="#000000"
         d="M 105 432 L 105 463"
         stroke-miterlimit="10"
         id="path228" />
    </g>
    <g
       transform="translate(-6,-302) scale(1,1)"
       id="g234"
       inkscape:export-xdpi="500"
       inkscape:export-ydpi="500">
      <path
         fill="none"
         stroke="#000000"
         d="M 100.79048224398402 452.83732514237585 L 105 463 L 109.20951775601598 452.83732514237585"
         stroke-miterlimit="10"
         id="path232" />
    </g>
    <g
       transform="translate(-6,-302) scale(1,1)"
       id="g238"
       inkscape:export-xdpi="500"
       inkscape:export-ydpi="500">
      <path
         fill="none"
         stroke="#000000"
         d="M 105 664 L 105 703"
         stroke-miterlimit="10"
         id="path236" />
    </g>
    <g
       transform="translate(-6,-302) scale(1,1)"
       id="g242"
       inkscape:export-xdpi="500"
       inkscape:export-ydpi="500">
      <path
         fill="none"
         stroke="#000000"
         d="M 100.79048224398402 692.8373251423759 L 105 703 L 109.20951775601598 692.8373251423759"
         stroke-miterlimit="10"
         id="path240" />
    </g>
    <g
       transform="translate(-6,-302) scale(1,1)"
       id="g246"
       inkscape:export-xdpi="500"
       inkscape:export-ydpi="500">
      <path
         fill="#C0C0C0"
         stroke="none"
         d="M 249 471 L 378.5810546875 471 Q 388.5810546875 471 388.5810546875 481 L 388.5810546875 500 Q 388.5810546875 510 378.5810546875 510 L 249 510 Q 239 510 239 500 L 239 481 Q 239 471 249 471 Z"
         opacity="0.2"
         id="path244" />
    </g>
    <g
       transform="translate(-6,-302) scale(1,1)"
       id="g250"
       inkscape:export-xdpi="500"
       inkscape:export-ydpi="500">
      <path
         fill="#ffffff"
         stroke="none"
         d="M 242 464 L 371.5810546875 464 Q 381.5810546875 464 381.5810546875 474 L 381.5810546875 493 Q 381.5810546875 503 371.5810546875 503 L 242 503 Q 232 503 232 493 L 232 474 Q 232 464 242 464 Z"
         id="path248" />
    </g>
    <g
       transform="translate(-6,-302) scale(1,1)"
       id="g254"
       inkscape:export-xdpi="500"
       inkscape:export-ydpi="500">
      <path
         fill="none"
         stroke="#000000"
         d="M 242 464 L 371.5810546875 464 Q 381.5810546875 464 381.5810546875 474 L 381.5810546875 493 Q 381.5810546875 503 371.5810546875 503 L 242 503 Q 232 503 232 493 L 232 474 Q 232 464 242 464 Z"
         stroke-miterlimit="10"
         id="path252" />
    </g>
    <g
       transform="translate(-6,-302) scale(1,1)"
       id="g262"
       inkscape:export-xdpi="500"
       inkscape:export-ydpi="500">
      <g
         id="g260">
        <path
           fill="none"
           stroke="none"
           id="path256" />
        <text
           fill="#000000"
           stroke="none"
           font-family="Arial"
           font-size="10px"
           font-style="normal"
           font-weight="bold"
           text-decoration="none"
           x="240.36474609375"
           y="480.5"
           id="text258">Menampilkan Halaman Log In</text>
      </g>
    </g>
    <g
       transform="translate(-6,-302) scale(1,1)"
       id="g266"
       inkscape:export-xdpi="500"
       inkscape:export-ydpi="500">
      <path
         fill="none"
         stroke="#000000"
         d="M 156 483 L 231 483"
         stroke-miterlimit="10"
         id="path264" />
    </g>
    <g
       transform="translate(-6,-302) scale(1,1)"
       id="g270"
       inkscape:export-xdpi="500"
       inkscape:export-ydpi="500">
      <path
         fill="none"
         stroke="#000000"
         d="M 220.83732514237585 487.209517756016 L 231 483 L 220.83732514237585 478.790482243984"
         stroke-miterlimit="10"
         id="path268" />
    </g>
    <g
       transform="translate(-6,-302) scale(1,1)"
       id="g274"
       inkscape:export-xdpi="500"
       inkscape:export-ydpi="500">
      <path
         fill="none"
         stroke="#000000"
         d="M 306 504 L 304 640 L 169 642"
         stroke-miterlimit="10"
         id="path272" />
    </g>
    <g
       transform="translate(-6,-302) scale(1,1)"
       id="g278"
       inkscape:export-xdpi="500"
       inkscape:export-ydpi="500">
      <path
         fill="none"
         stroke="#000000"
         d="M 179.09920341220356 637.640402491177 L 169 642 L 179.2239161790842 646.0585142556188"
         stroke-miterlimit="10"
         id="path276" />
    </g>
  </g>
</svg>
