<?xml version="1.0" encoding="UTF-8" standalone="no"?>
<svg
   xmlns:dc="http://purl.org/dc/elements/1.1/"
   xmlns:cc="http://creativecommons.org/ns#"
   xmlns:rdf="http://www.w3.org/1999/02/22-rdf-syntax-ns#"
   xmlns:svg="http://www.w3.org/2000/svg"
   xmlns="http://www.w3.org/2000/svg"
   xmlns:sodipodi="http://sodipodi.sourceforge.net/DTD/sodipodi-0.dtd"
   xmlns:inkscape="http://www.inkscape.org/namespaces/inkscape"
   version="1.1"
   width="587"
   height="587"
   id="svg258"
   sodipodi:docname="Use Case Diagram Login Bendahara!Use Case Diagram Login Bendahara_3.svg"
   inkscape:version="0.92.4 (0.92.4+201912240539+70224e8)">
  <metadata
     id="metadata262">
    <rdf:RDF>
      <cc:Work
         rdf:about="">
        <dc:format>image/svg+xml</dc:format>
        <dc:type
           rdf:resource="http://purl.org/dc/dcmitype/StillImage" />
      </cc:Work>
    </rdf:RDF>
  </metadata>
  <sodipodi:namedview
     pagecolor="#ffffff"
     bordercolor="#666666"
     borderopacity="1"
     objecttolerance="10"
     gridtolerance="10"
     guidetolerance="10"
     inkscape:pageopacity="0"
     inkscape:pageshadow="2"
     inkscape:window-width="782"
     inkscape:window-height="480"
     id="namedview260"
     showgrid="false"
     inkscape:zoom="0.20102215"
     inkscape:cx="557.23096"
     inkscape:cy="441.29803"
     inkscape:window-x="0"
     inkscape:window-y="24"
     inkscape:window-maximized="0"
     inkscape:current-layer="svg258" />
  <defs
     id="defs2" />
  <g
     id="g126"
     transform="translate(-30,-158)"
     inkscape:export-xdpi="500"
     inkscape:export-ydpi="500">
    <rect
       style="opacity:0.2;fill:#c0c0c0;stroke:none"
       id="rect124"
       height="151"
       width="327"
       y="175"
       x="287" />
  </g>
  <g
     id="g130"
     transform="translate(-30,-158)"
     inkscape:export-xdpi="500"
     inkscape:export-ydpi="500">
    <rect
       style="fill:#ffffff;stroke:none"
       id="rect128"
       height="151"
       width="327"
       y="168"
       x="280" />
  </g>
  <g
     id="g134"
     transform="translate(-30,-158)"
     inkscape:export-xdpi="500"
     inkscape:export-ydpi="500">
    <path
       style="fill:none;stroke:#000000;stroke-miterlimit:10"
       inkscape:connector-curvature="0"
       id="path132"
       stroke-miterlimit="10"
       d="M 280,168 H 607 V 319 H 280 Z" />
  </g>
  <g
     id="g142"
     transform="translate(-30,-158)"
     inkscape:export-xdpi="500"
     inkscape:export-ydpi="500">
    <g
       id="g140">
      <path
         style="fill:none;stroke:none"
         inkscape:connector-curvature="0"
         d=""
         id="path136" />
      <text
         style="font-style:normal;font-weight:bold;font-size:10px;font-family:Arial;text-decoration:none;text-decoration-line:none;fill:#000000;stroke:none"
         id="text138"
         y="184.5"
         x="395.40918"
         text-decoration="none"
         font-weight="bold"
         font-style="normal"
         font-size="10px">Manipulasi Keuangan</text>
    </g>
  </g>
  <g
     id="g146"
     transform="translate(-30,-158)"
     inkscape:export-xdpi="500"
     inkscape:export-ydpi="500">
    <path
       style="fill:#ffffff;stroke:none"
       inkscape:connector-curvature="0"
       id="path144"
       d="m 61.663012,241.68 c 0,-4.79383 3.885843,-8.68 8.679273,-8.68 4.793431,0 8.679273,3.88617 8.679273,8.68 0,4.79383 -3.885842,8.68 -8.679273,8.68 -4.79343,0 -8.679273,-3.88617 -8.679273,-8.68 z" />
  </g>
  <g
     id="g150"
     transform="translate(-30,-158)"
     inkscape:export-xdpi="500"
     inkscape:export-ydpi="500">
    <path
       style="fill:none;stroke:#000000;stroke-miterlimit:10"
       inkscape:connector-curvature="0"
       id="path148"
       stroke-miterlimit="10"
       d="m 61.663012,241.68 c 0,-4.79383 3.885843,-8.68 8.679273,-8.68 4.793431,0 8.679273,3.88617 8.679273,8.68 0,4.79383 -3.885842,8.68 -8.679273,8.68 -4.79343,0 -8.679273,-3.88617 -8.679273,-8.68 z" />
  </g>
  <g
     id="g154"
     transform="translate(-30,-158)"
     inkscape:export-xdpi="500"
     inkscape:export-ydpi="500">
    <path
       style="fill:none;stroke:#000000;stroke-miterlimit:10"
       inkscape:connector-curvature="0"
       id="path152"
       stroke-miterlimit="10"
       d="m 70.342285,250.36 v 17.28" />
  </g>
  <g
     id="g158"
     transform="translate(-30,-158)"
     inkscape:export-xdpi="500"
     inkscape:export-ydpi="500">
    <path
       style="fill:none;stroke:#000000;stroke-miterlimit:10"
       inkscape:connector-curvature="0"
       id="path156"
       stroke-miterlimit="10"
       d="M 61.152467,256.84 H 79.532103" />
  </g>
  <g
     id="g162"
     transform="translate(-30,-158)"
     inkscape:export-xdpi="500"
     inkscape:export-ydpi="500">
    <path
       style="fill:none;stroke:#000000;stroke-miterlimit:10"
       inkscape:connector-curvature="0"
       id="path160"
       stroke-miterlimit="10"
       d="M 70.342285,267.64 57.578649,285" />
  </g>
  <g
     id="g166"
     transform="translate(-30,-158)"
     inkscape:export-xdpi="500"
     inkscape:export-ydpi="500">
    <path
       style="fill:none;stroke:#000000;stroke-miterlimit:10"
       inkscape:connector-curvature="0"
       id="path164"
       stroke-miterlimit="10"
       d="M 70.342285,267.64 83.105922,285" />
  </g>
  <g
     id="g174"
     transform="translate(-30,-158)"
     inkscape:export-xdpi="500"
     inkscape:export-ydpi="500">
    <g
       id="g172">
      <path
         style="fill:none;stroke:none"
         inkscape:connector-curvature="0"
         d=""
         id="path168" />
      <text
         style="font-style:normal;font-weight:bold;font-size:10px;font-family:Arial;text-decoration:none;text-decoration-line:none;fill:#000000;stroke:none"
         id="text170"
         y="302.5"
         x="45.876953"
         text-decoration="none"
         font-weight="bold"
         font-style="normal"
         font-size="10px">Bendahara</text>
    </g>
  </g>
  <g
     id="g178"
     transform="translate(-30,-158)"
     inkscape:export-xdpi="500"
     inkscape:export-ydpi="500">
    <path
       style="opacity:0.2;fill:#c0c0c0;stroke:none"
       inkscape:connector-curvature="0"
       id="path176"
       d="m 127,278.5 c 0,-8.56041 17.90861,-15.5 40,-15.5 22.09139,0 40,6.93959 40,15.5 0,8.56041 -17.90861,15.5 -40,15.5 -22.09139,0 -40,-6.93959 -40,-15.5 z" />
  </g>
  <g
     id="g182"
     transform="translate(-30,-158)"
     inkscape:export-xdpi="500"
     inkscape:export-ydpi="500">
    <path
       style="fill:#ffffff;stroke:none"
       inkscape:connector-curvature="0"
       id="path180"
       d="m 120,271.5 c 0,-8.56041 17.90861,-15.5 40,-15.5 22.09139,0 40,6.93959 40,15.5 0,8.56041 -17.90861,15.5 -40,15.5 -22.09139,0 -40,-6.93959 -40,-15.5 z" />
  </g>
  <g
     id="g186"
     transform="translate(-30,-158)"
     inkscape:export-xdpi="500"
     inkscape:export-ydpi="500">
    <path
       style="fill:none;stroke:#000000;stroke-miterlimit:10"
       inkscape:connector-curvature="0"
       id="path184"
       stroke-miterlimit="10"
       d="m 120,271.5 c 0,-8.56041 17.90861,-15.5 40,-15.5 22.09139,0 40,6.93959 40,15.5 0,8.56041 -17.90861,15.5 -40,15.5 -22.09139,0 -40,-6.93959 -40,-15.5 z" />
  </g>
  <g
     id="g194"
     transform="translate(-30,-158)"
     inkscape:export-xdpi="500"
     inkscape:export-ydpi="500">
    <g
       id="g192">
      <path
         style="fill:none;stroke:none"
         inkscape:connector-curvature="0"
         d=""
         id="path188" />
      <text
         style="font-style:normal;font-weight:bold;font-size:10px;font-family:Arial;text-decoration:none;text-decoration-line:none;fill:#000000;stroke:none"
         id="text190"
         y="277"
         x="147.76611"
         text-decoration="none"
         font-weight="bold"
         font-style="normal"
         font-size="10px">Login</text>
    </g>
  </g>
  <g
     id="g198"
     transform="translate(-30,-158)"
     inkscape:export-xdpi="500"
     inkscape:export-ydpi="500">
    <path
       style="fill:none;stroke:#000000;stroke-miterlimit:10"
       inkscape:connector-curvature="0"
       id="path196"
       stroke-miterlimit="10"
       d="m 102,270 17,1" />
  </g>
  <g
     id="g202"
     transform="translate(-30,-158)"
     inkscape:export-xdpi="500"
     inkscape:export-ydpi="500">
    <path
       style="opacity:0.2;fill:#c0c0c0;stroke:none"
       inkscape:connector-curvature="0"
       id="path200"
       d="m 391,254.5 c 0,-8.56041 43.20452,-15.5 96.5,-15.5 53.29548,0 96.5,6.93959 96.5,15.5 0,8.56041 -43.20452,15.5 -96.5,15.5 -53.29548,0 -96.5,-6.93959 -96.5,-15.5 z" />
  </g>
  <g
     id="g206"
     transform="translate(-30,-158)"
     inkscape:export-xdpi="500"
     inkscape:export-ydpi="500">
    <path
       style="fill:#ffffff;stroke:none"
       inkscape:connector-curvature="0"
       id="path204"
       d="m 384,247.5 c 0,-8.56041 43.20452,-15.5 96.5,-15.5 53.29548,0 96.5,6.93959 96.5,15.5 0,8.56041 -43.20452,15.5 -96.5,15.5 -53.29548,0 -96.5,-6.93959 -96.5,-15.5 z" />
  </g>
  <g
     id="g210"
     transform="translate(-30,-158)"
     inkscape:export-xdpi="500"
     inkscape:export-ydpi="500">
    <path
       style="fill:none;stroke:#000000;stroke-miterlimit:10"
       inkscape:connector-curvature="0"
       id="path208"
       stroke-miterlimit="10"
       d="m 384,247.5 c 0,-8.56041 43.20452,-15.5 96.5,-15.5 53.29548,0 96.5,6.93959 96.5,15.5 0,8.56041 -43.20452,15.5 -96.5,15.5 -53.29548,0 -96.5,-6.93959 -96.5,-15.5 z" />
  </g>
  <g
     id="g218"
     transform="translate(-30,-158)"
     inkscape:export-xdpi="500"
     inkscape:export-ydpi="500">
    <g
       id="g216">
      <path
         style="fill:none;stroke:none"
         inkscape:connector-curvature="0"
         d=""
         id="path212" />
      <text
         style="font-style:normal;font-weight:bold;font-size:10px;font-family:Arial;text-decoration:none;text-decoration-line:none;fill:#000000;stroke:none"
         id="text214"
         y="253"
         x="420.4585"
         text-decoration="none"
         font-weight="bold"
         font-style="normal"
         font-size="10px">Manipulasi Data Keuangan</text>
    </g>
  </g>
  <g
     id="g242"
     transform="translate(-30,-158)"
     inkscape:export-xdpi="500"
     inkscape:export-ydpi="500">
    <path
       style="fill:none;stroke:#000000;stroke-miterlimit:10;stroke-dasharray:3"
       inkscape:connector-curvature="0"
       id="path240"
       stroke-miterlimit="10"
       d="M 201,268 383,254" />
  </g>
  <g
     id="g246"
     transform="translate(-30,-158)"
     inkscape:export-xdpi="500"
     inkscape:export-ydpi="500">
    <path
       style="fill:none;stroke:#000000;stroke-miterlimit:10"
       inkscape:connector-curvature="0"
       id="path244"
       stroke-miterlimit="10"
       d="M 373.19011,258.97656 383,254 372.5444,250.58232" />
  </g>
  <g
     id="g254"
     transform="translate(-30,-158)"
     inkscape:export-xdpi="500"
     inkscape:export-ydpi="500">
    <g
       id="g252">
      <path
         style="fill:none;stroke:none"
         inkscape:connector-curvature="0"
         d=""
         id="path248" />
      <text
         style="font-style:normal;font-weight:normal;font-size:10px;font-family:Arial;text-decoration:none;text-decoration-line:none;fill:#000000;stroke:none"
         id="text250"
         y="251.5"
         x="312.5"
         text-decoration="none"
         font-weight="normal"
         font-style="normal"
         font-size="10px">«include»</text>
    </g>
  </g>
</svg>
