<?xml version="1.0" encoding="UTF-8" standalone="no"?>
<svg
   xmlns:dc="http://purl.org/dc/elements/1.1/"
   xmlns:cc="http://creativecommons.org/ns#"
   xmlns:rdf="http://www.w3.org/1999/02/22-rdf-syntax-ns#"
   xmlns:svg="http://www.w3.org/2000/svg"
   xmlns="http://www.w3.org/2000/svg"
   xmlns:sodipodi="http://sodipodi.sourceforge.net/DTD/sodipodi-0.dtd"
   xmlns:inkscape="http://www.inkscape.org/namespaces/inkscape"
   version="1.1"
   width="603"
   height="411"
   id="svg338"
   sodipodi:docname="Use Case Diagram Login Admin!Use Case Diagram Login Admin_1.svg"
   inkscape:version="0.92.4 (0.92.4+201912240539+70224e8)">
  <metadata
     id="metadata342">
    <rdf:RDF>
      <cc:Work
         rdf:about="">
        <dc:format>image/svg+xml</dc:format>
        <dc:type
           rdf:resource="http://purl.org/dc/dcmitype/StillImage" />
      </cc:Work>
    </rdf:RDF>
  </metadata>
  <sodipodi:namedview
     pagecolor="#ffffff"
     bordercolor="#666666"
     borderopacity="1"
     objecttolerance="10"
     gridtolerance="10"
     guidetolerance="10"
     inkscape:pageopacity="0"
     inkscape:pageshadow="2"
     inkscape:window-width="1366"
     inkscape:window-height="720"
     id="namedview340"
     showgrid="false"
     inkscape:zoom="0.57928814"
     inkscape:cx="133.72535"
     inkscape:cy="115.27881"
     inkscape:window-x="0"
     inkscape:window-y="24"
     inkscape:window-maximized="1"
     inkscape:current-layer="svg338" />
  <defs
     id="defs2" />
  <g
     id="g118"
     transform="translate(-30,-78)"
     inkscape:export-xdpi="500"
     inkscape:export-ydpi="500">
    <rect
       style="opacity:0.2;fill:#c0c0c0;stroke:none"
       id="rect116"
       height="391"
       width="327"
       y="95"
       x="303" />
  </g>
  <g
     id="g122"
     transform="translate(-30,-78)"
     inkscape:export-xdpi="500"
     inkscape:export-ydpi="500">
    <rect
       style="fill:#ffffff;stroke:none"
       id="rect120"
       height="391"
       width="327"
       y="88"
       x="296" />
  </g>
  <g
     id="g126"
     transform="translate(-30,-78)"
     inkscape:export-xdpi="500"
     inkscape:export-ydpi="500">
    <path
       style="fill:none;stroke:#000000;stroke-miterlimit:10"
       inkscape:connector-curvature="0"
       id="path124"
       stroke-miterlimit="10"
       d="M 296,88 H 623 V 479 H 296 Z" />
  </g>
  <g
     id="g134"
     transform="translate(-30,-78)"
     inkscape:export-xdpi="500"
     inkscape:export-ydpi="500">
    <g
       id="g132">
      <path
         style="fill:none;stroke:none"
         inkscape:connector-curvature="0"
         d=""
         id="path128" />
      <text
         style="font-style:normal;font-weight:bold;font-size:10px;font-family:Arial;text-decoration:none;text-decoration-line:none;fill:#000000;stroke:none"
         id="text130"
         y="104.5"
         x="423.64795"
         text-decoration="none"
         font-weight="bold"
         font-style="normal"
         font-size="10px">Manipulasi Data</text>
    </g>
  </g>
  <g
     id="g138"
     transform="translate(-30,-78)"
     inkscape:export-xdpi="500"
     inkscape:export-ydpi="500">
    <path
       style="fill:#ffffff;stroke:none"
       inkscape:connector-curvature="0"
       id="path136"
       d="m 51.65813,241.68 c 0,-4.79383 3.885842,-8.68 8.679272,-8.68 4.793431,0 8.679273,3.88617 8.679273,8.68 0,4.79383 -3.885842,8.68 -8.679273,8.68 -4.79343,0 -8.679272,-3.88617 -8.679272,-8.68 z" />
  </g>
  <g
     id="g142"
     transform="translate(-30,-78)"
     inkscape:export-xdpi="500"
     inkscape:export-ydpi="500">
    <path
       style="fill:none;stroke:#000000;stroke-miterlimit:10"
       inkscape:connector-curvature="0"
       id="path140"
       stroke-miterlimit="10"
       d="m 51.65813,241.68 c 0,-4.79383 3.885842,-8.68 8.679272,-8.68 4.793431,0 8.679273,3.88617 8.679273,8.68 0,4.79383 -3.885842,8.68 -8.679273,8.68 -4.79343,0 -8.679272,-3.88617 -8.679272,-8.68 z" />
  </g>
  <g
     id="g146"
     transform="translate(-30,-78)"
     inkscape:export-xdpi="500"
     inkscape:export-ydpi="500">
    <path
       style="fill:none;stroke:#000000;stroke-miterlimit:10"
       inkscape:connector-curvature="0"
       id="path144"
       stroke-miterlimit="10"
       d="m 60.337402,250.36 v 17.28" />
  </g>
  <g
     id="g150"
     transform="translate(-30,-78)"
     inkscape:export-xdpi="500"
     inkscape:export-ydpi="500">
    <path
       style="fill:none;stroke:#000000;stroke-miterlimit:10"
       inkscape:connector-curvature="0"
       id="path148"
       stroke-miterlimit="10"
       d="M 51.147584,256.84 H 69.527221" />
  </g>
  <g
     id="g154"
     transform="translate(-30,-78)"
     inkscape:export-xdpi="500"
     inkscape:export-ydpi="500">
    <path
       style="fill:none;stroke:#000000;stroke-miterlimit:10"
       inkscape:connector-curvature="0"
       id="path152"
       stroke-miterlimit="10"
       d="M 60.337402,267.64 47.573766,285" />
  </g>
  <g
     id="g158"
     transform="translate(-30,-78)"
     inkscape:export-xdpi="500"
     inkscape:export-ydpi="500">
    <path
       style="fill:none;stroke:#000000;stroke-miterlimit:10"
       inkscape:connector-curvature="0"
       id="path156"
       stroke-miterlimit="10"
       d="M 60.337402,267.64 73.101039,285" />
  </g>
  <g
     id="g166"
     transform="translate(-30,-78)"
     inkscape:export-xdpi="500"
     inkscape:export-ydpi="500">
    <g
       id="g164">
      <path
         style="fill:none;stroke:none"
         inkscape:connector-curvature="0"
         d=""
         id="path160" />
      <text
         style="font-style:normal;font-weight:bold;font-size:10px;font-family:Arial;text-decoration:none;text-decoration-line:none;fill:#000000;stroke:none"
         id="text162"
         y="302.5"
         x="46.165039"
         text-decoration="none"
         font-weight="bold"
         font-style="normal"
         font-size="10px">Admin</text>
    </g>
  </g>
  <g
     id="g170"
     transform="translate(-30,-78)"
     inkscape:export-xdpi="500"
     inkscape:export-ydpi="500">
    <path
       style="opacity:0.2;fill:#c0c0c0;stroke:none"
       inkscape:connector-curvature="0"
       id="path168"
       d="m 127,278.5 c 0,-8.56041 17.90861,-15.5 40,-15.5 22.09139,0 40,6.93959 40,15.5 0,8.56041 -17.90861,15.5 -40,15.5 -22.09139,0 -40,-6.93959 -40,-15.5 z" />
  </g>
  <g
     id="g174"
     transform="translate(-30,-78)"
     inkscape:export-xdpi="500"
     inkscape:export-ydpi="500">
    <path
       style="fill:#ffffff;stroke:none"
       inkscape:connector-curvature="0"
       id="path172"
       d="m 120,271.5 c 0,-8.56041 17.90861,-15.5 40,-15.5 22.09139,0 40,6.93959 40,15.5 0,8.56041 -17.90861,15.5 -40,15.5 -22.09139,0 -40,-6.93959 -40,-15.5 z" />
  </g>
  <g
     id="g178"
     transform="translate(-30,-78)"
     inkscape:export-xdpi="500"
     inkscape:export-ydpi="500">
    <path
       style="fill:none;stroke:#000000;stroke-miterlimit:10"
       inkscape:connector-curvature="0"
       id="path176"
       stroke-miterlimit="10"
       d="m 120,271.5 c 0,-8.56041 17.90861,-15.5 40,-15.5 22.09139,0 40,6.93959 40,15.5 0,8.56041 -17.90861,15.5 -40,15.5 -22.09139,0 -40,-6.93959 -40,-15.5 z" />
  </g>
  <g
     id="g186"
     transform="translate(-30,-78)"
     inkscape:export-xdpi="500"
     inkscape:export-ydpi="500">
    <g
       id="g184">
      <path
         style="fill:none;stroke:none"
         inkscape:connector-curvature="0"
         d=""
         id="path180" />
      <text
         style="font-style:normal;font-weight:bold;font-size:10px;font-family:Arial;text-decoration:none;text-decoration-line:none;fill:#000000;stroke:none"
         id="text182"
         y="277"
         x="147.76611"
         text-decoration="none"
         font-weight="bold"
         font-style="normal"
         font-size="10px">Login</text>
    </g>
  </g>
  <g
     id="g190"
     transform="translate(-30,-78)"
     inkscape:export-xdpi="500"
     inkscape:export-ydpi="500">
    <path
       style="fill:none;stroke:#000000;stroke-miterlimit:10"
       inkscape:connector-curvature="0"
       id="path188"
       stroke-miterlimit="10"
       d="m 82,270 37,1" />
  </g>
  <g
     id="g194"
     transform="translate(-30,-78)"
     inkscape:export-xdpi="500"
     inkscape:export-ydpi="500">
    <path
       style="opacity:0.2;fill:#c0c0c0;stroke:none"
       inkscape:connector-curvature="0"
       id="path192"
       d="m 391,158.5 c 0,-8.56041 36.71265,-15.5 82,-15.5 45.28735,0 82,6.93959 82,15.5 0,8.56041 -36.71265,15.5 -82,15.5 -45.28735,0 -82,-6.93959 -82,-15.5 z" />
  </g>
  <g
     id="g198"
     transform="translate(-30,-78)"
     inkscape:export-xdpi="500"
     inkscape:export-ydpi="500">
    <path
       style="fill:#ffffff;stroke:none"
       inkscape:connector-curvature="0"
       id="path196"
       d="m 384,151.5 c 0,-8.56041 36.71265,-15.5 82,-15.5 45.28735,0 82,6.93959 82,15.5 0,8.56041 -36.71265,15.5 -82,15.5 -45.28735,0 -82,-6.93959 -82,-15.5 z" />
  </g>
  <g
     id="g202"
     transform="translate(-30,-78)"
     inkscape:export-xdpi="500"
     inkscape:export-ydpi="500">
    <path
       style="fill:none;stroke:#000000;stroke-miterlimit:10"
       inkscape:connector-curvature="0"
       id="path200"
       stroke-miterlimit="10"
       d="m 384,151.5 c 0,-8.56041 36.71265,-15.5 82,-15.5 45.28735,0 82,6.93959 82,15.5 0,8.56041 -36.71265,15.5 -82,15.5 -45.28735,0 -82,-6.93959 -82,-15.5 z" />
  </g>
  <g
     id="g210"
     transform="translate(-30,-78)"
     inkscape:export-xdpi="500"
     inkscape:export-ydpi="500">
    <g
       id="g208">
      <path
         style="fill:none;stroke:none"
         inkscape:connector-curvature="0"
         d=""
         id="path204" />
      <text
         style="font-style:normal;font-weight:bold;font-size:10px;font-family:Arial;text-decoration:none;text-decoration-line:none;fill:#000000;stroke:none"
         id="text206"
         y="157"
         x="415.69727"
         text-decoration="none"
         font-weight="bold"
         font-style="normal"
         font-size="10px">Manipulasi Data Santri</text>
    </g>
  </g>
  <g
     id="g214"
     transform="translate(-30,-78)"
     inkscape:export-xdpi="500"
     inkscape:export-ydpi="500">
    <path
       style="opacity:0.2;fill:#c0c0c0;stroke:none"
       inkscape:connector-curvature="0"
       id="path212"
       d="m 391,254.5 c 0,-8.56041 43.20452,-15.5 96.5,-15.5 53.29548,0 96.5,6.93959 96.5,15.5 0,8.56041 -43.20452,15.5 -96.5,15.5 -53.29548,0 -96.5,-6.93959 -96.5,-15.5 z" />
  </g>
  <g
     id="g218"
     transform="translate(-30,-78)"
     inkscape:export-xdpi="500"
     inkscape:export-ydpi="500">
    <path
       style="fill:#ffffff;stroke:none"
       inkscape:connector-curvature="0"
       id="path216"
       d="m 384,247.5 c 0,-8.56041 43.20452,-15.5 96.5,-15.5 53.29548,0 96.5,6.93959 96.5,15.5 0,8.56041 -43.20452,15.5 -96.5,15.5 -53.29548,0 -96.5,-6.93959 -96.5,-15.5 z" />
  </g>
  <g
     id="g222"
     transform="translate(-30,-78)"
     inkscape:export-xdpi="500"
     inkscape:export-ydpi="500">
    <path
       style="fill:none;stroke:#000000;stroke-miterlimit:10"
       inkscape:connector-curvature="0"
       id="path220"
       stroke-miterlimit="10"
       d="m 384,247.5 c 0,-8.56041 43.20452,-15.5 96.5,-15.5 53.29548,0 96.5,6.93959 96.5,15.5 0,8.56041 -43.20452,15.5 -96.5,15.5 -53.29548,0 -96.5,-6.93959 -96.5,-15.5 z" />
  </g>
  <g
     id="g230"
     transform="translate(-30,-78)"
     inkscape:export-xdpi="500"
     inkscape:export-ydpi="500">
    <g
       id="g228">
      <path
         style="fill:none;stroke:none"
         inkscape:connector-curvature="0"
         d=""
         id="path224" />
      <text
         style="font-style:normal;font-weight:bold;font-size:10px;font-family:Arial;text-decoration:none;text-decoration-line:none;fill:#000000;stroke:none"
         id="text226"
         y="253"
         x="420.4585"
         text-decoration="none"
         font-weight="bold"
         font-style="normal"
         font-size="10px">Manipulasi Data Keuangan</text>
    </g>
  </g>
  <g
     id="g234"
     transform="translate(-30,-78)"
     inkscape:export-xdpi="500"
     inkscape:export-ydpi="500">
    <path
       style="opacity:0.2;fill:#c0c0c0;stroke:none"
       inkscape:connector-curvature="0"
       id="path232"
       d="m 391,334.5 c 0,-8.56041 46.33852,-15.5 103.5,-15.5 57.16148,0 103.5,6.93959 103.5,15.5 0,8.56041 -46.33852,15.5 -103.5,15.5 C 437.33852,350 391,343.06041 391,334.5 Z" />
  </g>
  <g
     id="g238"
     transform="translate(-30,-78)"
     inkscape:export-xdpi="500"
     inkscape:export-ydpi="500">
    <path
       style="fill:#ffffff;stroke:none"
       inkscape:connector-curvature="0"
       id="path236"
       d="m 384,327.5 c 0,-8.56041 46.33852,-15.5 103.5,-15.5 57.16148,0 103.5,6.93959 103.5,15.5 0,8.56041 -46.33852,15.5 -103.5,15.5 C 430.33852,343 384,336.06041 384,327.5 Z" />
  </g>
  <g
     id="g242"
     transform="translate(-30,-78)"
     inkscape:export-xdpi="500"
     inkscape:export-ydpi="500">
    <path
       style="fill:none;stroke:#000000;stroke-miterlimit:10"
       inkscape:connector-curvature="0"
       id="path240"
       stroke-miterlimit="10"
       d="m 384,327.5 c 0,-8.56041 46.33852,-15.5 103.5,-15.5 57.16148,0 103.5,6.93959 103.5,15.5 0,8.56041 -46.33852,15.5 -103.5,15.5 C 430.33852,343 384,336.06041 384,327.5 Z" />
  </g>
  <g
     id="g250"
     transform="translate(-30,-78)"
     inkscape:export-xdpi="500"
     inkscape:export-ydpi="500">
    <g
       id="g248">
      <path
         style="fill:none;stroke:none"
         inkscape:connector-curvature="0"
         d=""
         id="path244" />
      <text
         style="font-style:normal;font-weight:bold;font-size:10px;font-family:Arial;text-decoration:none;text-decoration-line:none;fill:#000000;stroke:none"
         id="text246"
         y="333"
         x="422.7417"
         text-decoration="none"
         font-weight="bold"
         font-style="normal"
         font-size="10px">Manipulasi Data Kotak Saran</text>
    </g>
  </g>
  <g
     id="g254"
     transform="translate(-30,-78)"
     inkscape:export-xdpi="500"
     inkscape:export-ydpi="500">
    <path
       style="opacity:0.2;fill:#c0c0c0;stroke:none"
       inkscape:connector-curvature="0"
       id="path252"
       d="m 383,446.5 c 0,-8.56041 49.69639,-15.5 111,-15.5 61.30361,0 111,6.93959 111,15.5 0,8.56041 -49.69639,15.5 -111,15.5 -61.30361,0 -111,-6.93959 -111,-15.5 z" />
  </g>
  <g
     id="g258"
     transform="translate(-30,-78)"
     inkscape:export-xdpi="500"
     inkscape:export-ydpi="500">
    <path
       style="fill:#ffffff;stroke:none"
       inkscape:connector-curvature="0"
       id="path256"
       d="m 376,439.5 c 0,-8.56041 49.69639,-15.5 111,-15.5 61.30361,0 111,6.93959 111,15.5 0,8.56041 -49.69639,15.5 -111,15.5 -61.30361,0 -111,-6.93959 -111,-15.5 z" />
  </g>
  <g
     id="g262"
     transform="translate(-30,-78)"
     inkscape:export-xdpi="500"
     inkscape:export-ydpi="500">
    <path
       style="fill:none;stroke:#000000;stroke-miterlimit:10"
       inkscape:connector-curvature="0"
       id="path260"
       stroke-miterlimit="10"
       d="m 376,439.5 c 0,-8.56041 49.69639,-15.5 111,-15.5 61.30361,0 111,6.93959 111,15.5 0,8.56041 -49.69639,15.5 -111,15.5 -61.30361,0 -111,-6.93959 -111,-15.5 z" />
  </g>
  <g
     id="g270"
     transform="translate(-30,-78)"
     inkscape:export-xdpi="500"
     inkscape:export-ydpi="500">
    <g
       id="g268">
      <path
         style="fill:none;stroke:none"
         inkscape:connector-curvature="0"
         d=""
         id="path264" />
      <text
         style="font-style:normal;font-weight:bold;font-size:10px;font-family:Arial;text-decoration:none;text-decoration-line:none;fill:#000000;stroke:none"
         id="text266"
         y="445"
         x="417.23682"
         text-decoration="none"
         font-weight="bold"
         font-style="normal"
         font-size="10px">Manipulasi Data Info Pesantren</text>
    </g>
  </g>
  <g
     id="g274"
     transform="translate(-30,-78)"
     inkscape:export-xdpi="500"
     inkscape:export-ydpi="500">
    <path
       style="fill:none;stroke:#000000;stroke-miterlimit:10;stroke-dasharray:3"
       inkscape:connector-curvature="0"
       id="path272"
       stroke-miterlimit="10"
       d="M 201,255 423,168" />
  </g>
  <g
     id="g278"
     transform="translate(-30,-78)"
     inkscape:export-xdpi="500"
     inkscape:export-ydpi="500">
    <path
       style="fill:none;stroke:#000000;stroke-miterlimit:10"
       inkscape:connector-curvature="0"
       id="path276"
       stroke-miterlimit="10"
       d="M 415.07391,175.62739 423,168 412.00203,167.78879" />
  </g>
  <g
     id="g286"
     transform="translate(-30,-78)"
     inkscape:export-xdpi="500"
     inkscape:export-ydpi="500">
    <g
       id="g284">
      <path
         style="fill:none;stroke:none"
         inkscape:connector-curvature="0"
         d=""
         id="path280" />
      <text
         style="font-style:normal;font-weight:normal;font-size:10px;font-family:Arial;text-decoration:none;text-decoration-line:none;fill:#000000;stroke:none"
         id="text282"
         y="187.5"
         x="316.5"
         text-decoration="none"
         font-weight="normal"
         font-style="normal"
         font-size="10px">«include»</text>
    </g>
  </g>
  <g
     id="g290"
     transform="translate(-30,-78)"
     inkscape:export-xdpi="500"
     inkscape:export-ydpi="500">
    <path
       style="fill:none;stroke:#000000;stroke-miterlimit:10;stroke-dasharray:3"
       inkscape:connector-curvature="0"
       id="path288"
       stroke-miterlimit="10"
       d="M 201,268 383,254" />
  </g>
  <g
     id="g294"
     transform="translate(-30,-78)"
     inkscape:export-xdpi="500"
     inkscape:export-ydpi="500">
    <path
       style="fill:none;stroke:#000000;stroke-miterlimit:10"
       inkscape:connector-curvature="0"
       id="path292"
       stroke-miterlimit="10"
       d="M 373.19011,258.97656 383,254 372.5444,250.58232" />
  </g>
  <g
     id="g302"
     transform="translate(-30,-78)"
     inkscape:export-xdpi="500"
     inkscape:export-ydpi="500">
    <g
       id="g300">
      <path
         style="fill:none;stroke:none"
         inkscape:connector-curvature="0"
         d=""
         id="path296" />
      <text
         style="font-style:normal;font-weight:normal;font-size:10px;font-family:Arial;text-decoration:none;text-decoration-line:none;fill:#000000;stroke:none"
         id="text298"
         y="251.5"
         x="312.5"
         text-decoration="none"
         font-weight="normal"
         font-style="normal"
         font-size="10px">«include»</text>
    </g>
  </g>
  <g
     id="g306"
     transform="translate(-30,-78)"
     inkscape:export-xdpi="500"
     inkscape:export-ydpi="500">
    <path
       style="fill:none;stroke:#000000;stroke-miterlimit:10;stroke-dasharray:3"
       inkscape:connector-curvature="0"
       id="path304"
       stroke-miterlimit="10"
       d="m 201,278 193,33" />
  </g>
  <g
     id="g310"
     transform="translate(-30,-78)"
     inkscape:export-xdpi="500"
     inkscape:export-ydpi="500">
    <path
       style="fill:none;stroke:#000000;stroke-miterlimit:10"
       inkscape:connector-curvature="0"
       id="path308"
       stroke-miterlimit="10"
       d="M 383.27324,313.4365 394,311 l -9.30783,-5.8621" />
  </g>
  <g
     id="g318"
     transform="translate(-30,-78)"
     inkscape:export-xdpi="500"
     inkscape:export-ydpi="500">
    <g
       id="g316">
      <path
         style="fill:none;stroke:none"
         inkscape:connector-curvature="0"
         d=""
         id="path312" />
      <text
         style="font-style:normal;font-weight:normal;font-size:10px;font-family:Arial;text-decoration:none;text-decoration-line:none;fill:#000000;stroke:none"
         id="text314"
         y="285.5"
         x="288.5"
         text-decoration="none"
         font-weight="normal"
         font-style="normal"
         font-size="10px">«include»</text>
    </g>
  </g>
  <g
     id="g322"
     transform="translate(-30,-78)"
     inkscape:export-xdpi="500"
     inkscape:export-ydpi="500">
    <path
       style="fill:none;stroke:#000000;stroke-miterlimit:10;stroke-dasharray:3"
       inkscape:connector-curvature="0"
       id="path320"
       stroke-miterlimit="10"
       d="M 193,288 456,423" />
  </g>
  <g
     id="g326"
     transform="translate(-30,-78)"
     inkscape:export-xdpi="500"
     inkscape:export-ydpi="500">
    <path
       style="fill:none;stroke:#000000;stroke-miterlimit:10"
       inkscape:connector-curvature="0"
       id="path324"
       stroke-miterlimit="10"
       d="M 445.03655,422.10407 456,423 l -7.11882,-8.38585" />
  </g>
  <g
     id="g334"
     transform="translate(-30,-78)"
     inkscape:export-xdpi="500"
     inkscape:export-ydpi="500">
    <g
       id="g332">
      <path
         style="fill:none;stroke:none"
         inkscape:connector-curvature="0"
         d=""
         id="path328" />
      <text
         style="font-style:normal;font-weight:normal;font-size:10px;font-family:Arial;text-decoration:none;text-decoration-line:none;fill:#000000;stroke:none"
         id="text330"
         y="357.5"
         x="329.5"
         text-decoration="none"
         font-weight="normal"
         font-style="normal"
         font-size="10px">«include»</text>
    </g>
  </g>
</svg>
