<?xml version="1.0" encoding="UTF-8" standalone="no"?>
<svg
   xmlns:dc="http://purl.org/dc/elements/1.1/"
   xmlns:cc="http://creativecommons.org/ns#"
   xmlns:rdf="http://www.w3.org/1999/02/22-rdf-syntax-ns#"
   xmlns:svg="http://www.w3.org/2000/svg"
   xmlns="http://www.w3.org/2000/svg"
   xmlns:sodipodi="http://sodipodi.sourceforge.net/DTD/sodipodi-0.dtd"
   xmlns:inkscape="http://www.inkscape.org/namespaces/inkscape"
   version="1.1"
   width="563"
   height="571"
   id="svg5696"
   sodipodi:docname="Use Case Diagram Login Wali Kelas!Use Case Diagram Login Wali Kelas_4.svg"
   inkscape:version="0.92.4 (0.92.4+201912240539+70224e8)">
  <metadata
     id="metadata5700">
    <rdf:RDF>
      <cc:Work
         rdf:about="">
        <dc:format>image/svg+xml</dc:format>
        <dc:type
           rdf:resource="http://purl.org/dc/dcmitype/StillImage" />
      </cc:Work>
    </rdf:RDF>
  </metadata>
  <sodipodi:namedview
     pagecolor="#ffffff"
     bordercolor="#666666"
     borderopacity="1"
     objecttolerance="10"
     gridtolerance="10"
     guidetolerance="10"
     inkscape:pageopacity="0"
     inkscape:pageshadow="2"
     inkscape:window-width="1366"
     inkscape:window-height="720"
     id="namedview5698"
     showgrid="false"
     inkscape:zoom="0.82661996"
     inkscape:cx="374.82646"
     inkscape:cy="484.3578"
     inkscape:window-x="0"
     inkscape:window-y="24"
     inkscape:window-maximized="1"
     inkscape:current-layer="svg5696" />
  <defs
     id="defs5440" />
  <g
     id="g5564"
     transform="translate(-30,-174)"
     inkscape:export-xdpi="500"
     inkscape:export-ydpi="500">
    <rect
       style="opacity:0.2;fill:#c0c0c0;stroke:none"
       id="rect5562"
       height="143"
       width="231"
       y="191"
       x="359" />
  </g>
  <g
     id="g5568"
     transform="translate(-30,-174)"
     inkscape:export-xdpi="500"
     inkscape:export-ydpi="500">
    <rect
       style="fill:#ffffff;stroke:none"
       id="rect5566"
       height="143"
       width="231"
       y="184"
       x="352" />
  </g>
  <g
     id="g5572"
     transform="translate(-30,-174)"
     inkscape:export-xdpi="500"
     inkscape:export-ydpi="500">
    <path
       style="fill:none;stroke:#000000;stroke-miterlimit:10"
       inkscape:connector-curvature="0"
       id="path5570"
       stroke-miterlimit="10"
       d="M 352,184 H 583 V 327 H 352 Z" />
  </g>
  <g
     id="g5580"
     transform="translate(-30,-174)"
     inkscape:export-xdpi="500"
     inkscape:export-ydpi="500">
    <g
       id="g5578">
      <path
         style="fill:none;stroke:none"
         inkscape:connector-curvature="0"
         d=""
         id="path5574" />
      <text
         style="font-style:normal;font-weight:bold;font-size:10px;font-family:Arial;text-decoration:none;text-decoration-line:none;fill:#000000;stroke:none"
         id="text5576"
         y="200.5"
         x="429.14795"
         text-decoration="none"
         font-weight="bold"
         font-style="normal"
         font-size="10px">Manipulasi Santri</text>
    </g>
  </g>
  <g
     id="g5584"
     transform="translate(-30,-174)"
     inkscape:export-xdpi="500"
     inkscape:export-ydpi="500">
    <path
       style="fill:#ffffff;stroke:none"
       inkscape:connector-curvature="0"
       id="path5582"
       d="m 60.644946,241.68 c 0,-4.79383 3.885842,-8.68 8.679273,-8.68 4.79343,0 8.679272,3.88617 8.679272,8.68 0,4.79383 -3.885842,8.68 -8.679272,8.68 -4.793431,0 -8.679273,-3.88617 -8.679273,-8.68 z" />
  </g>
  <g
     id="g5588"
     transform="translate(-30,-174)"
     inkscape:export-xdpi="500"
     inkscape:export-ydpi="500">
    <path
       style="fill:none;stroke:#000000;stroke-miterlimit:10"
       inkscape:connector-curvature="0"
       id="path5586"
       stroke-miterlimit="10"
       d="m 60.644946,241.68 c 0,-4.79383 3.885842,-8.68 8.679273,-8.68 4.79343,0 8.679272,3.88617 8.679272,8.68 0,4.79383 -3.885842,8.68 -8.679272,8.68 -4.793431,0 -8.679273,-3.88617 -8.679273,-8.68 z" />
  </g>
  <g
     id="g5592"
     transform="translate(-30,-174)"
     inkscape:export-xdpi="500"
     inkscape:export-ydpi="500">
    <path
       style="fill:none;stroke:#000000;stroke-miterlimit:10"
       inkscape:connector-curvature="0"
       id="path5590"
       stroke-miterlimit="10"
       d="m 69.324219,250.36 v 17.28" />
  </g>
  <g
     id="g5596"
     transform="translate(-30,-174)"
     inkscape:export-xdpi="500"
     inkscape:export-ydpi="500">
    <path
       style="fill:none;stroke:#000000;stroke-miterlimit:10"
       inkscape:connector-curvature="0"
       id="path5594"
       stroke-miterlimit="10"
       d="M 60.134401,256.84 H 78.514037" />
  </g>
  <g
     id="g5600"
     transform="translate(-30,-174)"
     inkscape:export-xdpi="500"
     inkscape:export-ydpi="500">
    <path
       style="fill:none;stroke:#000000;stroke-miterlimit:10"
       inkscape:connector-curvature="0"
       id="path5598"
       stroke-miterlimit="10"
       d="M 69.324219,267.64 56.560582,285" />
  </g>
  <g
     id="g5604"
     transform="translate(-30,-174)"
     inkscape:export-xdpi="500"
     inkscape:export-ydpi="500">
    <path
       style="fill:none;stroke:#000000;stroke-miterlimit:10"
       inkscape:connector-curvature="0"
       id="path5602"
       stroke-miterlimit="10"
       d="M 69.324219,267.64 82.087855,285" />
  </g>
  <g
     id="g5612"
     transform="translate(-30,-174)"
     inkscape:export-xdpi="500"
     inkscape:export-ydpi="500">
    <g
       id="g5610">
      <path
         style="fill:none;stroke:none"
         inkscape:connector-curvature="0"
         d=""
         id="path5606" />
      <text
         style="font-style:normal;font-weight:bold;font-size:10px;font-family:Arial;text-decoration:none;text-decoration-line:none;fill:#000000;stroke:none"
         id="text5608"
         y="302.5"
         x="45.891602"
         text-decoration="none"
         font-weight="bold"
         font-style="normal"
         font-size="10px">Wali Kelas</text>
    </g>
  </g>
  <g
     id="g5616"
     transform="translate(-30,-174)"
     inkscape:export-xdpi="500"
     inkscape:export-ydpi="500">
    <path
       style="opacity:0.2;fill:#c0c0c0;stroke:none"
       inkscape:connector-curvature="0"
       id="path5614"
       d="m 127,278.5 c 0,-8.56041 17.90861,-15.5 40,-15.5 22.09139,0 40,6.93959 40,15.5 0,8.56041 -17.90861,15.5 -40,15.5 -22.09139,0 -40,-6.93959 -40,-15.5 z" />
  </g>
  <g
     id="g5620"
     transform="translate(-30,-174)"
     inkscape:export-xdpi="500"
     inkscape:export-ydpi="500">
    <path
       style="fill:#ffffff;stroke:none"
       inkscape:connector-curvature="0"
       id="path5618"
       d="m 120,271.5 c 0,-8.56041 17.90861,-15.5 40,-15.5 22.09139,0 40,6.93959 40,15.5 0,8.56041 -17.90861,15.5 -40,15.5 -22.09139,0 -40,-6.93959 -40,-15.5 z" />
  </g>
  <g
     id="g5624"
     transform="translate(-30,-174)"
     inkscape:export-xdpi="500"
     inkscape:export-ydpi="500">
    <path
       style="fill:none;stroke:#000000;stroke-miterlimit:10"
       inkscape:connector-curvature="0"
       id="path5622"
       stroke-miterlimit="10"
       d="m 120,271.5 c 0,-8.56041 17.90861,-15.5 40,-15.5 22.09139,0 40,6.93959 40,15.5 0,8.56041 -17.90861,15.5 -40,15.5 -22.09139,0 -40,-6.93959 -40,-15.5 z" />
  </g>
  <g
     id="g5632"
     transform="translate(-30,-174)"
     inkscape:export-xdpi="500"
     inkscape:export-ydpi="500">
    <g
       id="g5630">
      <path
         style="fill:none;stroke:none"
         inkscape:connector-curvature="0"
         d=""
         id="path5626" />
      <text
         style="font-style:normal;font-weight:bold;font-size:10px;font-family:Arial;text-decoration:none;text-decoration-line:none;fill:#000000;stroke:none"
         id="text5628"
         y="277"
         x="147.76611"
         text-decoration="none"
         font-weight="bold"
         font-style="normal"
         font-size="10px">Login</text>
    </g>
  </g>
  <g
     id="g5636"
     transform="translate(-30,-174)"
     inkscape:export-xdpi="500"
     inkscape:export-ydpi="500">
    <path
       style="fill:none;stroke:#000000;stroke-miterlimit:10"
       inkscape:connector-curvature="0"
       id="path5634"
       stroke-miterlimit="10"
       d="m 100,270 19,1" />
  </g>
  <g
     id="g5640"
     transform="translate(-30,-174)"
     inkscape:export-xdpi="500"
     inkscape:export-ydpi="500">
    <path
       style="opacity:0.2;fill:#c0c0c0;stroke:none"
       inkscape:connector-curvature="0"
       id="path5638"
       d="m 399,270.5 c 0,-8.56041 36.71265,-15.5 82,-15.5 45.28735,0 82,6.93959 82,15.5 0,8.56041 -36.71265,15.5 -82,15.5 -45.28735,0 -82,-6.93959 -82,-15.5 z" />
  </g>
  <g
     id="g5644"
     transform="translate(-30,-174)"
     inkscape:export-xdpi="500"
     inkscape:export-ydpi="500">
    <path
       style="fill:#ffffff;stroke:none"
       inkscape:connector-curvature="0"
       id="path5642"
       d="m 392,263.5 c 0,-8.56041 36.71265,-15.5 82,-15.5 45.28735,0 82,6.93959 82,15.5 0,8.56041 -36.71265,15.5 -82,15.5 -45.28735,0 -82,-6.93959 -82,-15.5 z" />
  </g>
  <g
     id="g5648"
     transform="translate(-30,-174)"
     inkscape:export-xdpi="500"
     inkscape:export-ydpi="500">
    <path
       style="fill:none;stroke:#000000;stroke-miterlimit:10"
       inkscape:connector-curvature="0"
       id="path5646"
       stroke-miterlimit="10"
       d="m 392,263.5 c 0,-8.56041 36.71265,-15.5 82,-15.5 45.28735,0 82,6.93959 82,15.5 0,8.56041 -36.71265,15.5 -82,15.5 -45.28735,0 -82,-6.93959 -82,-15.5 z" />
  </g>
  <g
     id="g5656"
     transform="translate(-30,-174)"
     inkscape:export-xdpi="500"
     inkscape:export-ydpi="500">
    <g
       id="g5654">
      <path
         style="fill:none;stroke:none"
         inkscape:connector-curvature="0"
         d=""
         id="path5650" />
      <text
         style="font-style:normal;font-weight:bold;font-size:10px;font-family:Arial;text-decoration:none;text-decoration-line:none;fill:#000000;stroke:none"
         id="text5652"
         y="269"
         x="423.69727"
         text-decoration="none"
         font-weight="bold"
         font-style="normal"
         font-size="10px">Manipulasi Data Santri</text>
    </g>
  </g>
  <g
     id="g5680"
     transform="translate(-30,-174)"
     inkscape:export-xdpi="500"
     inkscape:export-ydpi="500">
    <path
       style="fill:none;stroke:#000000;stroke-miterlimit:10;stroke-dasharray:3"
       inkscape:connector-curvature="0"
       id="path5678"
       stroke-miterlimit="10"
       d="m 201,270 190,-5" />
  </g>
  <g
     id="g5684"
     transform="translate(-30,-174)"
     inkscape:export-xdpi="500"
     inkscape:export-ydpi="500">
    <path
       style="fill:none;stroke:#000000;stroke-miterlimit:10"
       inkscape:connector-curvature="0"
       id="path5682"
       stroke-miterlimit="10"
       d="M 380.95158,269.47541 391,265 380.7301,261.05929" />
  </g>
  <g
     id="g5692"
     transform="translate(-30,-174)"
     inkscape:export-xdpi="500"
     inkscape:export-ydpi="500">
    <g
       id="g5690">
      <path
         style="fill:none;stroke:none"
         inkscape:connector-curvature="0"
         d=""
         id="path5686" />
      <text
         style="font-style:normal;font-weight:normal;font-size:10px;font-family:Arial;text-decoration:none;text-decoration-line:none;fill:#000000;stroke:none"
         id="text5688"
         y="255.5"
         x="272.5"
         text-decoration="none"
         font-weight="normal"
         font-style="normal"
         font-size="10px">«include»</text>
    </g>
  </g>
</svg>
