<?xml version="1.0" encoding="UTF-8" standalone="no"?>
<svg
   xmlns:dc="http://purl.org/dc/elements/1.1/"
   xmlns:cc="http://creativecommons.org/ns#"
   xmlns:rdf="http://www.w3.org/1999/02/22-rdf-syntax-ns#"
   xmlns:svg="http://www.w3.org/2000/svg"
   xmlns="http://www.w3.org/2000/svg"
   xmlns:sodipodi="http://sodipodi.sourceforge.net/DTD/sodipodi-0.dtd"
   xmlns:inkscape="http://www.inkscape.org/namespaces/inkscape"
   version="1.1"
   width="444"
   height="452"
   id="svg310"
   sodipodi:docname="Activity Diagram Keuangan!ActivityDiagram Keuangan_10.svg"
   inkscape:export-filename="/media/amri/homes/Documents/proposalSkripsi/bahan/Prototype dan UML/svg/Activity Diagram Keuangan.png"
   inkscape:export-xdpi="500"
   inkscape:export-ydpi="500"
   inkscape:version="0.92.4 (0.92.4+202001282325+e23c7ed)">
  <metadata
     id="metadata314">
    <rdf:RDF>
      <cc:Work
         rdf:about="">
        <dc:format>image/svg+xml</dc:format>
        <dc:type
           rdf:resource="http://purl.org/dc/dcmitype/StillImage" />
      </cc:Work>
    </rdf:RDF>
  </metadata>
  <sodipodi:namedview
     pagecolor="#ffffff"
     bordercolor="#666666"
     borderopacity="1"
     objecttolerance="10"
     gridtolerance="10"
     guidetolerance="10"
     inkscape:pageopacity="0"
     inkscape:pageshadow="2"
     inkscape:window-width="1366"
     inkscape:window-height="717"
     id="namedview312"
     showgrid="false"
     inkscape:zoom="0.52212389"
     inkscape:cx="-162.9661"
     inkscape:cy="226"
     inkscape:window-x="0"
     inkscape:window-y="27"
     inkscape:window-maximized="1"
     inkscape:current-layer="svg310" />
  <defs
     id="defs2" />
  <g
     id="g102"
     transform="translate(-54,-278)">
    <rect
       style="fill:#ffffff;stroke:none"
       id="rect100"
       height="18"
       width="203"
       y="288"
       x="64" />
  </g>
  <g
     id="g106"
     transform="translate(-54,-278)">
    <path
       style="fill:none;stroke:#000000;stroke-width:2;stroke-miterlimit:10"
       inkscape:connector-curvature="0"
       id="path104"
       stroke-miterlimit="10"
       d="m 64,288 h 203 v 18 H 64 Z" />
  </g>
  <g
     id="g110"
     transform="translate(-54,-278)">
    <path
       style="fill:none;stroke:#000000;stroke-width:2;stroke-miterlimit:10"
       inkscape:connector-curvature="0"
       id="path108"
       stroke-miterlimit="10"
       d="M 64,720 V 288 h 203 v 432" />
  </g>
  <g
     id="g118"
     transform="translate(-54,-278)">
    <g
       id="g116">
      <path
         style="fill:none;stroke:none"
         inkscape:connector-curvature="0"
         d=""
         id="path112" />
      <text
         style="font-style:normal;font-weight:normal;font-size:10px;font-family:Arial;text-decoration:none;text-decoration-line:none;fill:#000000;stroke:none"
         id="text114"
         y="302"
         x="114.54053"
         text-decoration="none"
         font-weight="normal"
         font-style="normal"
         font-size="10px">Orang Tua</text>
    </g>
  </g>
  <g
     id="g122"
     transform="translate(-54,-278)">
    <rect
       style="fill:#ffffff;stroke:none"
       id="rect120"
       height="18"
       width="209"
       y="288"
       x="279" />
  </g>
  <g
     id="g126"
     transform="translate(-54,-278)">
    <path
       style="fill:none;stroke:#000000;stroke-width:2;stroke-miterlimit:10"
       inkscape:connector-curvature="0"
       id="path124"
       stroke-miterlimit="10"
       d="m 279,288 h 209 v 18 H 279 Z" />
  </g>
  <g
     id="g130"
     transform="translate(-54,-278)">
    <path
       style="fill:none;stroke:#000000;stroke-width:2;stroke-miterlimit:10"
       inkscape:connector-curvature="0"
       id="path128"
       stroke-miterlimit="10"
       d="M 279,720 V 288 h 209 v 432" />
  </g>
  <g
     id="g138"
     transform="translate(-54,-278)">
    <g
       id="g136">
      <path
         style="fill:none;stroke:none"
         inkscape:connector-curvature="0"
         d=""
         id="path132" />
      <text
         style="font-style:normal;font-weight:normal;font-size:10px;font-family:Arial;text-decoration:none;text-decoration-line:none;fill:#000000;stroke:none"
         id="text134"
         y="302"
         x="368.21924"
         text-decoration="none"
         font-weight="normal"
         font-style="normal"
         font-size="10px">Sistem</text>
    </g>
  </g>
  <g
     id="g142"
     transform="translate(-54,-278)">
    <path
       style="opacity:0.2;fill:#c0c0c0;stroke:none"
       inkscape:connector-curvature="0"
       id="path140"
       d="m 163,336.5 c 0,-5.24671 4.25329,-9.5 9.5,-9.5 5.24671,0 9.5,4.25329 9.5,9.5 0,5.24671 -4.25329,9.5 -9.5,9.5 -5.24671,0 -9.5,-4.25329 -9.5,-9.5 z" />
  </g>
  <g
     id="g146"
     transform="translate(-54,-278)">
    <path
       style="fill:#000000;stroke:none"
       inkscape:connector-curvature="0"
       id="path144"
       d="m 156,329.5 c 0,-5.24671 4.25329,-9.5 9.5,-9.5 5.24671,0 9.5,4.25329 9.5,9.5 0,5.24671 -4.25329,9.5 -9.5,9.5 -5.24671,0 -9.5,-4.25329 -9.5,-9.5 z" />
  </g>
  <g
     id="g150"
     transform="translate(-54,-278)">
    <path
       style="opacity:0.2;fill:#c0c0c0;stroke:none"
       inkscape:connector-curvature="0"
       id="path148"
       d="m 140,375 h 64.0293 q 10,0 10,10 v 19 q 0,10 -10,10 H 140 q -10,0 -10,-10 v -19 q 0,-10 10,-10 z" />
  </g>
  <g
     id="g154"
     transform="translate(-54,-278)">
    <path
       style="fill:#ffffff;stroke:none"
       inkscape:connector-curvature="0"
       id="path152"
       d="m 133,368 h 64.0293 q 10,0 10,10 v 19 q 0,10 -10,10 H 133 q -10,0 -10,-10 v -19 q 0,-10 10,-10 z" />
  </g>
  <g
     id="g158"
     transform="translate(-54,-278)">
    <path
       style="fill:none;stroke:#000000;stroke-miterlimit:10"
       inkscape:connector-curvature="0"
       id="path156"
       stroke-miterlimit="10"
       d="m 133,368 h 64.0293 q 10,0 10,10 v 19 q 0,10 -10,10 H 133 q -10,0 -10,-10 v -19 q 0,-10 10,-10 z" />
  </g>
  <g
     id="g166"
     transform="translate(-54,-278)">
    <g
       id="g164">
      <path
         style="fill:none;stroke:none"
         inkscape:connector-curvature="0"
         d=""
         id="path160" />
      <text
         style="font-style:normal;font-weight:bold;font-size:10px;font-family:Arial;text-decoration:none;text-decoration-line:none;fill:#000000;stroke:none"
         id="text162"
         y="384.5"
         x="128.88916"
         text-decoration="none"
         font-weight="bold"
         font-style="normal"
         font-size="10px">Halaman Utama</text>
    </g>
  </g>
  <g
     id="g170"
     transform="translate(-54,-278)">
    <path
       style="opacity:0.2;fill:#c0c0c0;stroke:none"
       inkscape:connector-curvature="0"
       id="path168"
       d="m 117,447 h 111.23633 q 10,0 10,10 v 19 q 0,10 -10,10 H 117 q -10,0 -10,-10 v -19 q 0,-10 10,-10 z" />
  </g>
  <g
     id="g174"
     transform="translate(-54,-278)">
    <path
       style="fill:#ffffff;stroke:none"
       inkscape:connector-curvature="0"
       id="path172"
       d="m 110,440 h 111.23633 q 10,0 10,10 v 19 q 0,10 -10,10 H 110 q -10,0 -10,-10 v -19 q 0,-10 10,-10 z" />
  </g>
  <g
     id="g178"
     transform="translate(-54,-278)">
    <path
       style="fill:none;stroke:#000000;stroke-miterlimit:10"
       inkscape:connector-curvature="0"
       id="path176"
       stroke-miterlimit="10"
       d="m 110,440 h 111.23633 q 10,0 10,10 v 19 q 0,10 -10,10 H 110 q -10,0 -10,-10 v -19 q 0,-10 10,-10 z" />
  </g>
  <g
     id="g186"
     transform="translate(-54,-278)">
    <g
       id="g184">
      <path
         style="fill:none;stroke:none"
         inkscape:connector-curvature="0"
         d=""
         id="path180" />
      <text
         style="font-style:normal;font-weight:bold;font-size:10px;font-family:Arial;text-decoration:none;text-decoration-line:none;fill:#000000;stroke:none"
         id="text182"
         y="456.5"
         x="118.08398"
         text-decoration="none"
         font-weight="bold"
         font-style="normal"
         font-size="10px">Pilih Menu Keuangan</text>
    </g>
  </g>
  <g
     id="g190"
     transform="translate(-54,-278)">
    <path
       style="opacity:0.2;fill:#c0c0c0;stroke:none"
       inkscape:connector-curvature="0"
       id="path188"
       d="m 109,519 h 127.91113 q 10,0 10,10 v 19 q 0,10 -10,10 H 109 q -10,0 -10,-10 v -19 q 0,-10 10,-10 z" />
  </g>
  <g
     id="g194"
     transform="translate(-54,-278)">
    <path
       style="fill:#ffffff;stroke:none"
       inkscape:connector-curvature="0"
       id="path192"
       d="m 102,512 h 127.91113 q 10,0 10,10 v 19 q 0,10 -10,10 H 102 q -10,0 -10,-10 v -19 q 0,-10 10,-10 z" />
  </g>
  <g
     id="g198"
     transform="translate(-54,-278)">
    <path
       style="fill:none;stroke:#000000;stroke-miterlimit:10"
       inkscape:connector-curvature="0"
       id="path196"
       stroke-miterlimit="10"
       d="m 102,512 h 127.91113 q 10,0 10,10 v 19 q 0,10 -10,10 H 102 q -10,0 -10,-10 v -19 q 0,-10 10,-10 z" />
  </g>
  <g
     id="g206"
     transform="translate(-54,-278)">
    <g
       id="g204">
      <path
         style="fill:none;stroke:none"
         inkscape:connector-curvature="0"
         d=""
         id="path200" />
      <text
         style="font-style:normal;font-weight:bold;font-size:10px;font-family:Arial;text-decoration:none;text-decoration-line:none;fill:#000000;stroke:none"
         id="text202"
         y="528.5"
         x="100.35986"
         text-decoration="none"
         font-weight="bold"
         font-style="normal"
         font-size="10px">Memilih Sub Menu Keuangan</text>
    </g>
  </g>
  <g
     id="g210"
     transform="translate(-54,-278)">
    <path
       style="opacity:0.2;fill:#c0c0c0;stroke:none"
       inkscape:connector-curvature="0"
       id="path208"
       d="m 303,519 h 175.1377 q 10,0 10,10 v 19 q 0,10 -10,10 H 303 q -10,0 -10,-10 v -19 q 0,-10 10,-10 z" />
  </g>
  <g
     id="g214"
     transform="translate(-54,-278)">
    <path
       style="fill:#ffffff;stroke:none"
       inkscape:connector-curvature="0"
       id="path212"
       d="m 296,512 h 175.1377 q 10,0 10,10 v 19 q 0,10 -10,10 H 296 q -10,0 -10,-10 v -19 q 0,-10 10,-10 z" />
  </g>
  <g
     id="g218"
     transform="translate(-54,-278)">
    <path
       style="fill:none;stroke:#000000;stroke-miterlimit:10"
       inkscape:connector-curvature="0"
       id="path216"
       stroke-miterlimit="10"
       d="m 296,512 h 175.1377 q 10,0 10,10 v 19 q 0,10 -10,10 H 296 q -10,0 -10,-10 v -19 q 0,-10 10,-10 z" />
  </g>
  <g
     id="g226"
     transform="translate(-54,-278)">
    <g
       id="g224">
      <path
         style="fill:none;stroke:none"
         inkscape:connector-curvature="0"
         d=""
         id="path220" />
      <text
         style="font-style:normal;font-weight:bold;font-size:10px;font-family:Arial;text-decoration:none;text-decoration-line:none;fill:#000000;stroke:none"
         id="text222"
         y="528.5"
         x="305.46094"
         text-decoration="none"
         font-weight="bold"
         font-style="normal"
         font-size="10px">Menampilkan Sub Menu Keuangan</text>
    </g>
  </g>
  <g
     id="g230"
     transform="translate(-54,-278)">
    <path
       style="opacity:0.2;fill:#c0c0c0;stroke:none"
       inkscape:connector-curvature="0"
       id="path228"
       d="m 110,607 h 125.13281 q 10,0 10,10 v 19 q 0,10 -10,10 H 110 q -10,0 -10,-10 v -19 q 0,-10 10,-10 z" />
  </g>
  <g
     id="g234"
     transform="translate(-54,-278)">
    <path
       style="fill:#ffffff;stroke:none"
       inkscape:connector-curvature="0"
       id="path232"
       d="m 103,600 h 125.13281 q 10,0 10,10 v 19 q 0,10 -10,10 H 103 q -10,0 -10,-10 v -19 q 0,-10 10,-10 z" />
  </g>
  <g
     id="g238"
     transform="translate(-54,-278)">
    <path
       style="fill:none;stroke:#000000;stroke-miterlimit:10"
       inkscape:connector-curvature="0"
       id="path236"
       stroke-miterlimit="10"
       d="m 103,600 h 125.13281 q 10,0 10,10 v 19 q 0,10 -10,10 H 103 q -10,0 -10,-10 v -19 q 0,-10 10,-10 z" />
  </g>
  <g
     id="g246"
     transform="translate(-54,-278)">
    <g
       id="g244">
      <path
         style="fill:none;stroke:none"
         inkscape:connector-curvature="0"
         d=""
         id="path240" />
      <text
         style="font-style:normal;font-weight:bold;font-size:10px;font-family:Arial;text-decoration:none;text-decoration-line:none;fill:#000000;stroke:none"
         id="text242"
         y="616.5"
         x="101.07666"
         text-decoration="none"
         font-weight="bold"
         font-style="normal"
         font-size="10px">Melihat Sub Menu Keuangan</text>
    </g>
  </g>
  <g
     id="g250"
     transform="translate(-54,-278)">
    <path
       style="opacity:0.2;fill:#c0c0c0;stroke:none"
       inkscape:connector-curvature="0"
       id="path248"
       d="m 160,699.5 c 0,-6.90356 5.59644,-12.5 12.5,-12.5 6.90356,0 12.5,5.59644 12.5,12.5 0,6.90356 -5.59644,12.5 -12.5,12.5 -6.90356,0 -12.5,-5.59644 -12.5,-12.5 z" />
  </g>
  <g
     id="g254"
     transform="translate(-54,-278)">
    <path
       style="fill:none;stroke:#000000;stroke-miterlimit:10"
       inkscape:connector-curvature="0"
       id="path252"
       stroke-miterlimit="10"
       d="m 153,692.5 c 0,-6.90356 5.59644,-12.5 12.5,-12.5 6.90356,0 12.5,5.59644 12.5,12.5 0,6.90356 -5.59644,12.5 -12.5,12.5 -6.90356,0 -12.5,-5.59644 -12.5,-12.5 z" />
  </g>
  <g
     id="g258"
     transform="translate(-54,-278)">
    <path
       style="fill:#000000;stroke:none"
       inkscape:connector-curvature="0"
       id="path256"
       d="m 158,692.5 c 0,-4.14214 3.35786,-7.5 7.5,-7.5 4.14214,0 7.5,3.35786 7.5,7.5 0,4.14214 -3.35786,7.5 -7.5,7.5 -4.14214,0 -7.5,-3.35786 -7.5,-7.5 z" />
  </g>
  <g
     id="g262"
     transform="translate(-54,-278)">
    <path
       style="fill:none;stroke:#000000;stroke-miterlimit:10"
       inkscape:connector-curvature="0"
       id="path260"
       stroke-miterlimit="10"
       d="m 165,339 v 29" />
  </g>
  <g
     id="g266"
     transform="translate(-54,-278)">
    <path
       style="fill:none;stroke:#000000;stroke-miterlimit:10"
       inkscape:connector-curvature="0"
       id="path264"
       stroke-miterlimit="10"
       d="M 160.79048,357.83733 165,368 l 4.20952,-10.16267" />
  </g>
  <g
     id="g270"
     transform="translate(-54,-278)">
    <path
       style="fill:none;stroke:#000000;stroke-miterlimit:10"
       inkscape:connector-curvature="0"
       id="path268"
       stroke-miterlimit="10"
       d="m 165,407 v 33" />
  </g>
  <g
     id="g274"
     transform="translate(-54,-278)">
    <path
       style="fill:none;stroke:#000000;stroke-miterlimit:10"
       inkscape:connector-curvature="0"
       id="path272"
       stroke-miterlimit="10"
       d="M 160.79048,429.83733 165,440 l 4.20952,-10.16267" />
  </g>
  <g
     id="g278"
     transform="translate(-54,-278)">
    <path
       style="fill:none;stroke:#000000;stroke-miterlimit:10"
       inkscape:connector-curvature="0"
       id="path276"
       stroke-miterlimit="10"
       d="m 165,479 v 33" />
  </g>
  <g
     id="g282"
     transform="translate(-54,-278)">
    <path
       style="fill:none;stroke:#000000;stroke-miterlimit:10"
       inkscape:connector-curvature="0"
       id="path280"
       stroke-miterlimit="10"
       d="M 160.79048,501.83733 165,512 l 4.20952,-10.16267" />
  </g>
  <g
     id="g286"
     transform="translate(-54,-278)">
    <path
       style="fill:none;stroke:#000000;stroke-miterlimit:10"
       inkscape:connector-curvature="0"
       id="path284"
       stroke-miterlimit="10"
       d="m 240,531 h 46" />
  </g>
  <g
     id="g290"
     transform="translate(-54,-278)">
    <path
       style="fill:none;stroke:#000000;stroke-miterlimit:10"
       inkscape:connector-curvature="0"
       id="path288"
       stroke-miterlimit="10"
       d="M 275.83733,535.20952 286,531 275.83733,526.79048" />
  </g>
  <g
     id="g294"
     transform="translate(-54,-278)">
    <path
       style="fill:none;stroke:#000000;stroke-miterlimit:10"
       inkscape:connector-curvature="0"
       id="path292"
       stroke-miterlimit="10"
       d="m 381,551 v 65 h -5 v 2 H 238" />
  </g>
  <g
     id="g298"
     transform="translate(-54,-278)">
    <path
       style="fill:none;stroke:#000000;stroke-miterlimit:10"
       inkscape:connector-curvature="0"
       id="path296"
       stroke-miterlimit="10"
       d="M 248.16267,613.79048 238,618 l 10.16267,4.20952" />
  </g>
  <g
     id="g302"
     transform="translate(-54,-278)">
    <path
       style="fill:none;stroke:#000000;stroke-miterlimit:10"
       inkscape:connector-curvature="0"
       id="path300"
       stroke-miterlimit="10"
       d="m 165,639 v 41" />
  </g>
  <g
     id="g306"
     transform="translate(-54,-278)">
    <path
       style="fill:none;stroke:#000000;stroke-miterlimit:10"
       inkscape:connector-curvature="0"
       id="path304"
       stroke-miterlimit="10"
       d="M 160.79048,669.83733 165,680 l 4.20952,-10.16267" />
  </g>
</svg>
